<svg width="61" height="93" viewBox="0 0 61 93" fill="none" xmlns="http://www.w3.org/2000/svg">
<path d="M54.577 81.465L52.9124 91.3342H7.79087L1.09078 56.5927C0.944602 55.796 0.975262 54.9765 1.18057 54.1933C1.38588 53.41 1.76072 52.6824 2.27811 52.0629C2.7955 51.4434 3.44256 50.9473 4.17273 50.6105C4.90289 50.2736 5.69798 50.1043 6.50077 50.1147H42.9143" stroke="#5E0300" stroke-width="2" stroke-miterlimit="10" stroke-linecap="round"/>
<path d="M42.9043 50.1147H53.1833C53.9953 50.1046 54.7997 50.2735 55.5403 50.6098C56.2809 50.946 56.9397 51.4414 57.4708 52.0614C58.0019 52.6813 58.3924 53.4109 58.6151 54.199C58.8377 54.9871 58.8871 55.8148 58.7598 56.6241L56.2628 71.4594" stroke="#5E0300" stroke-width="2" stroke-miterlimit="10" stroke-linecap="round"/>
<path d="M16.551 50.1152H7.79095L5.08594 29.9464L13.6899 28.8125L15.7499 44.1202L16.551 50.1152Z" stroke="#5E0300" stroke-width="2" stroke-miterlimit="10"/>
<path d="M34.9649 42.1777L34.1846 50.115H27.2764L24.4258 28.8754V16.6124L31.4068 15.6885L34.9649 42.1777Z" stroke="#5E0300" stroke-width="2" stroke-miterlimit="10"/>
<path d="M45.4207 24.3187L42.903 50.115H34.1846L34.9649 42.1777L36.7751 23.4893L45.4207 24.3187Z" stroke="#5E0300" stroke-width="2" stroke-miterlimit="10"/>
<path d="M59.1549 23.7726L53.4223 50.1149H44.5479L50.6757 21.9668L59.1549 23.7726Z" stroke="#5E0300" stroke-width="2" stroke-miterlimit="10"/>
<path d="M24.4268 1V50.1148H16.5511L15.75 44.1198V1H24.4268Z" stroke="#5E0300" stroke-width="2" stroke-miterlimit="10"/>
</svg>
