<svg width="64" height="77" viewBox="0 0 64 77" fill="none" xmlns="http://www.w3.org/2000/svg">
<path d="M49.6048 20.2306C50.6389 20.2306 51.4772 19.4069 51.4772 18.3907C51.4772 17.3745 50.6389 16.5508 49.6048 16.5508C48.5707 16.5508 47.7324 17.3745 47.7324 18.3907C47.7324 19.4069 48.5707 20.2306 49.6048 20.2306Z" fill="#5E0300"/>
<path d="M31.6751 62.8449C32.7092 62.8449 33.5475 62.0211 33.5475 61.005C33.5475 59.9888 32.7092 59.165 31.6751 59.165C30.641 59.165 29.8027 59.9888 29.8027 61.005C29.8027 62.0211 30.641 62.8449 31.6751 62.8449Z" fill="#5E0300"/>
<path d="M20.7464 32.0802C21.7805 32.0802 22.6188 31.2565 22.6188 30.2403C22.6188 29.2242 21.7805 28.4004 20.7464 28.4004C19.7123 28.4004 18.874 29.2242 18.874 30.2403C18.874 31.2565 19.7123 32.0802 20.7464 32.0802Z" fill="#5E0300"/>
<path d="M37.6419 40.3205C38.676 40.3205 39.5143 39.4967 39.5143 38.4805C39.5143 37.4644 38.676 36.6406 37.6419 36.6406C36.6078 36.6406 35.7695 37.4644 35.7695 38.4805C35.7695 39.4967 36.6078 40.3205 37.6419 40.3205Z" fill="#5E0300"/>
<path d="M22.6185 12.1974C23.6526 12.1974 24.4909 11.3737 24.4909 10.3575C24.4909 9.34134 23.6526 8.51758 22.6185 8.51758C21.5844 8.51758 20.7461 9.34134 20.7461 10.3575C20.7461 11.3737 21.5844 12.1974 22.6185 12.1974Z" fill="#5E0300"/>
<path d="M49.0933 46.8693L37.9569 71.9061C35.5294 77.3368 28.3555 77.3368 25.9823 71.9061L13.2021 43.2192L4.83081 24.4243L2.12017 18.3209C-1.46133 10.2886 3.98167 1 12.255 1H50.269C59.2064 1 65.0958 11.0503 61.2203 19.7355L58.9452 24.8497L54.9391 33.8613" stroke="#5E0300" stroke-width="2" stroke-miterlimit="10" stroke-linecap="round"/>
</svg>
