<svg width="101" height="57" viewBox="0 0 101 57" fill="none" xmlns="http://www.w3.org/2000/svg">
<path d="M10.3154 7.17668C9.2765 11.706 12.5449 25.0282 14.0857 28.5581C17.0622 35.39 25.8985 46.0933 43.1975 46.1313C52.9092 46.1313 66.2045 43.1708 71.714 33.6947C75.3909 27.3688 77.8539 20.8026 82.5813 15.8558C89.4916 8.60632 99.8337 11.0355 99.9971 8.92262C100.219 6.39227 86.5617 0.420668 70.1032 1.10386C55.0804 1.73645 53.7613 7.29055 38.5868 8.04965C22.0815 8.87201 11.4943 2.01478 10.3154 7.17668Z" stroke="#5E0300" stroke-width="2" stroke-miterlimit="10"/>
<path d="M64.0449 12.047C71.082 9.6823 78.348 8.2091 85.6979 7.65684C90.5026 7.3619 95.3212 7.8394 99.997 9.07383" stroke="#5E0300" stroke-width="2" stroke-miterlimit="10" stroke-linecap="round"/>
<path d="M10.3623 7.01172C16.0353 17.7151 26.8325 21.9407 31.8752 22.1938C39.3808 22.6492 45.9875 19.4357 52.2675 16.5638" stroke="#5E0300" stroke-width="2" stroke-miterlimit="10" stroke-linecap="round"/>
<path d="M31.502 44.1074C30.6966 44.9424 26.401 49.5856 27.6616 53.3179C28.7122 56.4681 59.6917 56.291 60.3453 53.0016C60.8823 50.2941 58.8396 46.992 55.3611 44.8665" stroke="#5E0300" stroke-width="2" stroke-miterlimit="10"/>
<path d="M10.5137 13.4395C8.41259 13.8064 4.92244 14.8058 3.04313 17.779C-0.458693 23.409 3.44 33.3406 9.40478 37.7434C13.9571 41.1087 16.817 40.1219 23.5872 40.1219" stroke="#5E0300" stroke-width="2" stroke-miterlimit="10"/>
</svg>
