<svg width="47" height="59" viewBox="0 0 47 59" fill="none" xmlns="http://www.w3.org/2000/svg">
<g clip-path="url(#clip0_860_5563)">
<path d="M36.8462 57.698H9.18417C4.62486 57.698 1.01649 53.7616 1.30307 49.088L3.06818 22.6493C3.18614 20.1825 4.1841 17.8356 5.88651 16.0216C7.58892 14.2076 9.88673 13.0426 12.3757 12.7315C12.7348 12.693 13.0957 12.6737 13.4569 12.6738H34.2083C34.3451 12.6738 34.4753 12.6738 34.6121 12.6738C39.8228 12.879 44.0108 17.1038 44.3039 22.4634L45.6847 48.1072C45.9648 53.3385 41.9266 57.698 36.8462 57.698Z" stroke="#5E0300" stroke-width="3" stroke-miterlimit="10" stroke-linecap="round"/>
<path d="M34.6121 12.6735C34.4753 12.6735 34.345 12.6735 34.2083 12.6735H13.4699C13.1087 12.6734 12.7478 12.6926 12.3887 12.7312V12.6735C12.3757 6.41001 17.3649 1.28125 23.5004 1.28125C29.6359 1.28125 34.6121 6.41001 34.6121 12.6735Z" stroke="#5E0300" stroke-width="3" stroke-miterlimit="10" stroke-linecap="round"/>
</g>
<defs>
<clipPath id="clip0_860_5563">
<rect width="47" height="59" fill="white"/>
</clipPath>
</defs>
</svg>
