<svg width="56" height="93" viewBox="0 0 56 93" fill="none" xmlns="http://www.w3.org/2000/svg">
<path d="M3.36281 33.8244L2.85999 72.9669C2.78982 78.7807 8.77699 83.0193 14.6706 81.2576C27.3933 77.4542 42.7355 64.5 42.9342 46.0221C43.133 27.5442 28.2938 14.4035 15.6997 10.2788C9.79434 8.34088 3.63177 12.5173 3.54991 18.383V19.8857" stroke="#5E0300" stroke-width="2" stroke-miterlimit="10" stroke-linecap="round"/>
<path d="M5.42067 13.2527C5.22188 12.7449 3.61985 7.88446 5.85334 4.76509C9.96952 -1.00731 20.3301 0.671556 21.8269 4.37128C21.8269 4.37128 19.4882 10.7033 19.3595 10.6618C19.2309 10.6204 21.7801 5.6667 24.5048 5.21071C28.7145 4.53709 36.9469 8.69281 37.6953 13.833C37.7654 14.3201 32.7605 20.0511 32.5968 19.8231C32.4331 19.5951 35.5202 16.1337 39.9404 16.0301C43.5889 16.0301 49.6579 24.9944 48.3833 29.2641C48.3833 29.2641 42.478 33.1193 40.455 33.4094C40.338 33.4094 45.1324 31.0777 49.3889 32.2177C53.6454 33.3576 55.3644 43.5137 52.8035 47.5658C52.8035 47.5658 42.8405 48.0011 42.8639 47.8456C42.8873 47.6902 49.8099 47.1202 52.3942 50.5194C54.0313 52.6542 52.5112 62.0849 48.8861 65.3597C48.8861 65.3597 38.9816 62.1574 39.0751 62.2507C39.7884 62.5616 48.1026 63.8363 47.8571 68.4687C47.8571 68.9973 43.2381 78.4176 37.8239 79.7234C37.8239 79.7234 29.7669 73.6193 29.9306 73.5053C30.0944 73.3913 37.6953 80.1172 35.4033 82.4593C32.4799 85.4336 28.9133 87.9208 21.6281 89.8587C21.6281 89.8587 16.8571 81.7338 17.1494 81.6509C17.4418 81.568 19.6753 88.2006 18.4124 89.9416C15.9216 93.3512 3.39767 89.1955 2.89484 88.9053C0.614568 87.4026 2.2283 78.5419 3.28073 75.6713" stroke="#5E0300" stroke-width="2" stroke-miterlimit="10"/>
<path d="M14.624 16.248C19.0046 17.2246 22.9701 19.3095 26.0371 22.2484C28.2256 24.3564 29.9331 26.8198 31.0654 29.5028" stroke="#5E0300" stroke-width="2" stroke-miterlimit="10" stroke-linecap="round"/>
</svg>
