<svg width="72" height="84" viewBox="0 0 72 84" fill="none" xmlns="http://www.w3.org/2000/svg">
<path d="M69.6221 21.4919L67.0323 27.0806L57.7181 47.1869L43.1562 78.5454C42.6287 79.8551 41.691 80.9826 40.4677 81.7782C39.2443 82.5737 37.7932 82.9998 36.3069 82.9998C34.8206 82.9998 33.3695 82.5737 32.1462 81.7782C30.9228 80.9826 29.9851 79.8551 29.4576 78.5454L14.8957 47.1869L5.36569 26.6309L2.27611 19.9502C-1.80168 11.1604 4.38884 1.00019 13.8166 1.00019H57.1389C67.3277 0.946664 74.0293 11.942 69.6221 21.4919Z" stroke="#5E0300" stroke-width="2" stroke-miterlimit="10"/>
<path d="M54.2202 16.8136C59.1754 19.3773 63.5327 22.8544 67.0328 27.038L57.7187 47.1872L43.1568 78.5457C42.6292 79.8554 41.6915 80.9829 40.4682 81.7785C39.2448 82.574 37.7937 83.0001 36.3074 83.0001C34.8212 83.0001 33.37 82.574 32.1467 81.7785C30.9234 80.9829 29.9857 79.8554 29.4581 78.5457L14.8962 47.1872L5.36621 26.6312C9.02948 22.2601 13.6865 18.7193 18.9943 16.2698C24.302 13.8203 30.1252 12.5244 36.0348 12.4776C37.9706 12.4758 39.9036 12.6154 41.8164 12.8951" stroke="#5E0300" stroke-width="2" stroke-miterlimit="10" stroke-linecap="round"/>
<path d="M48.7225 37.6792C52.1791 37.6792 54.9812 34.7792 54.9812 31.2019C54.9812 27.6246 52.1791 24.7246 48.7225 24.7246C45.266 24.7246 42.4639 27.6246 42.4639 31.2019C42.4639 34.7792 45.266 37.6792 48.7225 37.6792Z" stroke="#5E0300" stroke-width="2" stroke-miterlimit="10"/>
<path d="M36.1931 62.9358C37.4916 62.9358 38.5443 61.8477 38.5443 60.5055C38.5443 59.1633 37.4916 58.0752 36.1931 58.0752C34.8945 58.0752 33.8418 59.1633 33.8418 60.5055C33.8418 61.8477 34.8945 62.9358 36.1931 62.9358Z" stroke="#5E0300" stroke-width="2" stroke-miterlimit="10"/>
<path d="M21.8691 35.1311L28.9229 24.7246" stroke="#5E0300" stroke-width="2" stroke-miterlimit="10" stroke-linecap="round"/>
</svg>
