<svg width="21" height="21" viewBox="0 0 21 21" fill="none" xmlns="http://www.w3.org/2000/svg">
<path fill-rule="evenodd" clip-rule="evenodd" d="M2.59693e-07 1.75446C2.59693e-07 1.28915 0.184844 0.842894 0.513868 0.51387C0.842892 0.184846 1.28914 2.33894e-06 1.75445 2.33894e-06H19.2436C19.4742 -0.000374278 19.7026 0.0447351 19.9158 0.132748C20.1289 0.22076 20.3226 0.349948 20.4857 0.512914C20.6489 0.67588 20.7783 0.869425 20.8665 1.08247C20.9548 1.29551 21.0001 1.52386 21 1.75446V19.2436C21.0002 19.4743 20.955 19.7027 20.8669 19.9158C20.7788 20.129 20.6495 20.3227 20.4865 20.4858C20.3234 20.6489 20.1298 20.7783 19.9167 20.8665C19.7036 20.9548 19.4752 21.0001 19.2446 21H1.75445C1.52398 21 1.29576 20.9546 1.08283 20.8664C0.869911 20.7781 0.676459 20.6488 0.51353 20.4858C0.350602 20.3228 0.22139 20.1293 0.133276 19.9163C0.0451627 19.7033 -0.000125137 19.4751 2.59693e-07 19.2446V1.75446ZM8.31218 8.00673H11.1558V9.43473C11.5662 8.61382 12.6162 7.875 14.1941 7.875C17.219 7.875 17.9359 9.51014 17.9359 12.5103V18.0676H14.8747V13.1937C14.8747 11.4851 14.4642 10.521 13.4219 10.521C11.9757 10.521 11.3744 11.5605 11.3744 13.1937V18.0676H8.31218V8.00673ZM3.06218 17.9369H6.12436V7.875H3.06218V17.9369ZM6.5625 4.59327C6.56827 4.85546 6.52162 5.11616 6.42527 5.36007C6.32893 5.60399 6.18483 5.8262 6.00145 6.01367C5.81806 6.20114 5.59908 6.35009 5.35734 6.45178C5.11561 6.55347 4.856 6.60585 4.59375 6.60585C4.3315 6.60585 4.07189 6.55347 3.83016 6.45178C3.58842 6.35009 3.36944 6.20114 3.18605 6.01367C3.00266 5.8262 2.85857 5.60399 2.76223 5.36007C2.66588 5.11616 2.61923 4.85546 2.625 4.59327C2.63633 4.07864 2.84873 3.58889 3.21671 3.22893C3.58469 2.86897 4.07899 2.6674 4.59375 2.6674C5.10851 2.6674 5.60281 2.86897 5.97079 3.22893C6.33877 3.58889 6.55117 4.07864 6.5625 4.59327Z" fill="#FBFBFB"/>
</svg>
