<svg width="191" height="31" viewBox="0 0 191 31" fill="none" xmlns="http://www.w3.org/2000/svg">
<path d="M13.2109 11.5692L19.849 11.5092C20.206 8.51122 19.849 5.35732 19.6099 4.9286C19.0225 3.91728 18.2038 3.04878 17.2161 2.38928C15.801 1.47763 14.1359 0.995287 12.4347 1.0042C11.525 0.977219 8.088 1.0042 5.26263 3.54352C2.77879 5.75905 2.3317 8.48125 2.15783 9.53955C1.95913 10.7178 1.63002 12.6635 2.63598 14.6182C3.39044 16.0842 4.56095 16.9057 5.74077 17.7361C7.47015 18.9503 8.95424 19.403 10.7612 21.0849C11.272 21.494 11.6118 22.0682 11.7175 22.7008C11.7583 23.0415 11.7145 23.3867 11.5898 23.7078C11.4651 24.0289 11.263 24.3168 11.0003 24.5476C9.84532 25.429 7.6347 24.4697 6.21891 23.8551C4.0766 22.9257 3.89342 22.2631 2.98992 22.3561L0 27.6685C0.515396 28.9157 1.89703 29.3444 4.30636 30.0909C5.94259 30.6006 8.57856 31.3831 11.9566 30.7835C13.7077 30.4837 15.7227 30.1149 17.4552 28.475C19.967 26.1006 19.967 22.8537 19.967 22.1252C20.0126 20.7212 19.6833 19.3294 19.0107 18.0839C18.0544 16.39 16.6324 15.4936 14.4684 14.1595C11.4567 12.3067 10.2086 12.3127 9.68387 10.9276C9.49352 10.3645 9.44861 9.76508 9.55305 9.18142C9.65749 8.59776 9.90811 8.0476 10.2831 7.57884C10.7861 6.95825 11.8355 6.13979 12.5558 6.42461C13.5028 6.79336 13.273 8.82301 13.273 9.88731C13.2885 10.7028 13.2109 11.1465 13.2109 11.5692Z" fill="#5E0300"/>
<path d="M184.551 11.5692L190.855 11.5092C191.197 8.51122 190.855 5.35732 190.628 4.9286C190.071 3.91716 189.294 3.04856 188.357 2.38928C187.012 1.47763 185.43 0.995287 183.814 1.0042C182.947 0.977219 179.684 1.0042 176.997 3.54352C174.652 5.75905 174.215 8.48125 174.047 9.53955C173.858 10.7178 173.546 12.6635 174.501 14.6182C175.218 16.0842 176.33 16.9057 177.451 17.7361C179.094 18.9503 180.507 19.403 182.224 21.0849C182.709 21.494 183.032 22.0682 183.133 22.7008C183.17 23.0414 183.128 23.3862 183.009 23.707C182.891 24.0279 182.7 24.3159 182.451 24.5476C181.351 25.429 179.254 24.4697 177.906 23.8551C175.873 22.9257 175.699 22.2631 174.841 22.3561L172 27.6685C172.49 28.9157 173.799 29.3444 176.088 30.0909C177.646 30.6006 180.15 31.3831 183.36 30.7835C185.02 30.4837 186.935 30.1149 188.584 28.475C190.97 26.1006 190.97 22.8537 190.97 22.1252C191.014 20.7212 190.701 19.3294 190.062 18.0839C189.153 16.39 187.799 15.4936 185.743 14.1595C182.885 12.3067 181.699 12.3127 181.2 10.9276C181.019 10.3647 180.976 9.76502 181.075 9.18122C181.174 8.59741 181.413 8.04723 181.77 7.57884C182.245 6.95825 183.245 6.13979 183.926 6.42461C184.826 6.79336 184.608 8.82301 184.608 9.88731C184.608 10.7028 184.551 11.1465 184.551 11.5692Z" fill="#5E0300"/>
<path d="M42.5879 16.1602C40.6944 7.44223 41.2 3.65335 38.1055 1.86964C37.8205 1.70504 34.6709 0.3912 32.3148 1.34291C31.4385 1.69606 30.6236 4.12321 30.4367 4.52125C27.0664 11.6651 27.0971 14.1521 22.5319 26.65C22.0723 27.9099 21.3523 29.2986 21 30.798L28.6106 30.8519C29.4961 29.4243 29.3858 29.119 30.262 27.455L31.3252 25.4379C31.9778 25.2434 36.7421 24.8154 36.7421 24.8154C37.3548 26.4644 36.8707 30.801 36.8707 30.801C38.4753 30.981 40.0917 31.039 41.7055 30.9746C43.314 30.9177 44.9501 30.9955 44.9501 30.9955C45.2289 30.7411 44.3251 24.148 42.5879 16.1602ZM34.9558 18.6443L31.7419 18.5156L33.6169 13.4069L34.4534 15.8161C34.4534 15.8161 34.9773 18.5634 34.9558 18.6443Z" fill="#5E0300"/>
<path d="M53.934 29.8625H46L47.4607 1L55.3148 1.19136L60.3673 12.2843V1.29602H68L67.0405 30H59.4602C59.4602 30 53.811 15.349 53.894 15.349C53.9771 15.349 53.934 29.8625 53.934 29.8625Z" fill="#5E0300"/>
<path d="M76.8489 8.73281L70 10.1418V1H91V8.02983L84.3793 8.50152L83.9229 31H76.3925L76.8489 8.73281Z" fill="#5E0300"/>
<path d="M94.6514 1.9132L93 30H112.82V22.6914L100.317 22.4631V19.4745L111.169 18.5494L110.697 11.5018H101.021L100.785 8.9905L114 8.0773V1L94.6514 1.9132Z" fill="#5E0300"/>
<path d="M133.178 18.6782C133.178 18.6782 139 16.6024 138.612 8.7093C138.394 4.23153 134.378 2.67542 133.695 2.31743C128.682 -0.829427 120.058 2.64943 120.058 2.64943L118 29.5392L125.128 29.672L125.071 20.6587C125.786 20.4393 132.035 31 132.035 31L139 25.6619C139 25.3848 133.178 18.6782 133.178 18.6782ZM125.809 14.6941L125.659 8.76416C127.853 6.56136 131.734 8.1088 131.705 9.65336C131.665 11.7667 127.919 15.9644 125.809 14.6941Z" fill="#5E0300"/>
<path d="M170.514 8H165.812L165 0H171L170.514 8Z" fill="#5E0300"/>
<path d="M153.825 1.02454C148.074 0.555014 142.818 6.87914 142.085 15.148C141.352 23.4169 145.424 30.5091 151.175 30.9757C156.926 31.4424 162.182 25.124 162.915 16.8522C163.648 8.58045 159.576 1.49407 153.825 1.02454ZM155.36 16.0523C154.953 20.6577 153.343 24.2835 151.763 24.1676C150.182 24.0517 149.232 20.1998 149.652 15.5973C150.071 10.9947 151.672 7.36605 153.249 7.49648C154.827 7.6269 155.783 11.4498 155.36 16.0523Z" fill="#5E0300"/>
</svg>
