<svg width="114" height="114" viewBox="0 0 114 114" fill="none" xmlns="http://www.w3.org/2000/svg">
<path d="M24.6184 17.23H15.959V14.6787H24.6184V17.23Z" fill="#263238"/>
<path d="M19.7884 11.4615C18.3451 11.4387 14.7063 11.3794 13.3109 11.3657H11.1289H11.0241V11.4706V14.0219V14.1359H11.1381L15.4701 14.12C16.5485 14.12 18.7213 14.088 19.8021 14.0721H19.834V14.0219L19.7838 11.4706L19.7884 11.4615ZM19.7884 11.4615L19.7359 14.0128L19.7884 13.9604C18.7077 13.9467 16.5371 13.9239 15.4564 13.9148L11.1244 13.8988L11.2384 14.0128L11.227 11.4615L11.1244 11.5664H13.2699C14.6379 11.5527 18.3634 11.4957 19.7838 11.4729L19.7884 11.4615Z" fill="#263238"/>
<path d="M29.4515 11.4615C28.0082 11.4387 24.3671 11.3794 22.974 11.3657H20.7897H20.6871V11.4706V14.0219V14.1359H20.8011L25.1331 14.12C26.2116 14.12 28.3867 14.088 29.4651 14.0721H29.5176V14.0219L29.4674 11.4706L29.4515 11.4615ZM29.4515 11.4615L29.399 14.0128L29.4515 13.9604C28.3707 13.9467 26.2002 13.9239 25.1195 13.9148L20.7875 13.8988L20.9015 14.0128V11.4615L20.7966 11.5664H22.9443C24.3123 11.5527 28.0379 11.4957 29.4583 11.4729L29.4515 11.4615Z" fill="#263238"/>
<path d="M102.867 11.4615C101.427 11.4387 97.7854 11.3794 96.3923 11.3657H94.208H94.1032V11.4706V14.0219V14.1359H94.2172L98.5492 14.12C99.6276 14.12 101.8 14.088 102.881 14.0721H102.934V14.0219L102.881 11.4706L102.867 11.4615ZM102.867 11.4615L102.826 14.0128L102.877 13.9604C101.796 13.9467 99.6276 13.9239 98.5446 13.9148L94.2126 13.8988L94.3266 14.0128V11.4615L94.2217 11.5664H96.3695C97.7375 11.5527 101.463 11.4957 102.881 11.4729L102.867 11.4615Z" fill="#263238"/>
<path d="M98.0364 88.9448H89.377V86.3935H98.0364V88.9448Z" fill="#263238"/>
<path d="M102.867 83.1788C101.427 83.1537 97.7854 83.0967 96.3923 83.083H94.208H94.1032V83.1879V85.7392V85.8532H94.2172L98.5492 85.8395C99.6276 85.8281 101.8 85.8076 102.881 85.7917H102.934V85.7278L102.881 83.1765L102.867 83.1788ZM102.867 83.1788L102.826 85.7278L102.877 85.6754C101.796 85.6594 99.6276 85.6389 98.5446 85.6298L94.2126 85.6138L94.3266 85.7278V83.1765L94.2217 83.2791H96.3695C97.7375 83.2654 101.463 83.2061 102.881 83.1856L102.867 83.1788Z" fill="#263238"/>
<path d="M85.2718 31.0764C83.8285 31.0536 80.1897 30.9966 78.7943 30.9829H76.6123H76.5075V31.0878V33.6391V33.7531H76.6078L80.9398 33.7372C82.0182 33.7372 84.1911 33.7052 85.2718 33.6916H85.3242V33.6414L85.2718 31.0764ZM85.2718 31.0764L85.2216 33.6277L85.2718 33.5776C84.1911 33.5616 82.0228 33.5388 80.9398 33.5297L76.6078 33.5137L76.7218 33.6277V31.0764L76.6169 31.1813H78.7624C80.1304 31.1653 83.8559 31.1083 85.2763 31.0855L85.2718 31.0764Z" fill="#263238"/>
<path d="M19.7884 86.3913C18.3451 86.3685 14.7063 86.3115 13.3109 86.2979H11.1289H11.0241V86.4027V88.9541V89.0681H11.1381L15.4701 89.0521C16.5485 89.0521 18.7213 89.0202 19.8021 89.0065H19.834V88.9541L19.7838 86.4027L19.7884 86.3913ZM19.7884 86.3913L19.7359 88.9427L19.7884 88.8925C18.7077 88.8766 16.5371 88.8538 15.4564 88.8446L11.1244 88.8287L11.2384 88.9427L11.227 86.3913L11.1244 86.4962H13.2699C14.6379 86.4825 18.3634 86.4233 19.7838 86.4005L19.7884 86.3913Z" fill="#263238"/>
<path d="M44.5222 53.623H53.1816V56.1744H44.5222V53.623Z" fill="#263238"/>
<path d="M49.3529 59.3919C50.7961 59.4147 54.435 59.4717 55.8303 59.4853L58.0123 59.4967H58.1172V59.3919V56.8406V56.7266H58.0032L53.6712 56.7425C52.5927 56.7425 50.4199 56.7744 49.3392 56.7881H49.2867V56.8383L49.3392 59.3896L49.3529 59.3919ZM49.3529 59.3919L49.403 56.8406L49.3529 56.8907C50.4336 56.9067 52.6019 56.9295 53.6849 56.9386L58.0169 56.9546L57.9029 56.8406V59.3919L58.0077 59.287H55.8623C54.4943 59.3007 50.7688 59.3599 49.3483 59.3827L49.3529 59.3919Z" fill="#263238"/>
<path d="M28.2727 12.271H43.8496V27.848H28.2727V12.271Z" fill="white"/>
<path d="M44.6621 11.4614V28.6595H27.4641V11.4614H44.6621ZM28.2712 27.8478H43.8504V12.2708H28.2712V27.8478Z" fill="#DBDBDB"/>
<path d="M29.3945 24.8336V19.4482H41.5355V24.8336H29.3945Z" fill="#263238"/>
<path d="M32.9512 23.1691V16.9492H39.171V23.1691H32.9512Z" fill="#C7C7C7"/>
<path d="M26.7994 11.4614H27.4629V28.6595H26.7994V11.4614Z" fill="#C7C7C7"/>
<path d="M28.2727 34.3892H43.8496V49.9661H28.2727V34.3892Z" fill="white"/>
<path d="M37.1063 36.8813H41.1738V48.6302H37.1063V36.8813Z" fill="#C7C7C7"/>
<path d="M44.6621 33.5796V50.7754H27.4641V33.5796H44.6621ZM28.2712 49.966H43.8504V34.389H28.2712V49.966Z" fill="#DBDBDB"/>
<path d="M32.954 39.0679H39.1738V45.2877H32.954V39.0679Z" fill="#263238"/>
<path d="M26.7994 33.5796H27.4629V50.7776H26.7994V33.5796Z" fill="#C7C7C7"/>
<path d="M28.2727 56.5073H43.8496V72.0843H28.2727V56.5073Z" fill="white"/>
<path d="M33.5773 58.6299H42.125V63.7394H33.5773V58.6299Z" fill="#263238"/>
<path d="M44.6621 55.6982V72.894H27.4641V55.6982H44.6621ZM28.2712 72.0846H43.8504V56.5076H28.2712V72.0846Z" fill="#DBDBDB"/>
<path d="M32.954 61.186H39.1738V67.4059H32.954V61.186Z" fill="#C7C7C7"/>
<path d="M26.7994 55.6982H27.4629V72.8963H26.7994V55.6982Z" fill="#C7C7C7"/>
<path d="M100.547 11.4614V69.5399H62.7992V11.4614H100.547ZM64.1923 68.1377H99.1492V12.8545H64.1923V68.1377Z" fill="#263238"/>
<path d="M64.1915 12.8545H99.1484V68.1377H64.1915V12.8545Z" fill="white"/>
<path d="M99.1506 41.1904L64.1914 41.1904V39.7973L99.1506 39.7973V41.1904Z" fill="#263238"/>
<path d="M103.109 73.5254H60.2363V69.5285H103.109V73.5254Z" fill="#DBDBDB"/>
<path d="M99.1523 12.8521H64.1931V48.6207H99.1523V12.8521ZM65.4836 14.1357H97.8596V47.3302H65.4836V14.1357Z" fill="#DBDBDB"/>
<path d="M75.3515 12.8521H76.0469V47.3302H75.3515V12.8521Z" fill="#DBDBDB"/>
<path d="M87.2968 12.8521H87.9922V47.3302H87.2968V12.8521Z" fill="#DBDBDB"/>
<path d="M11.0016 97.064H16.6605H22.3263C22.8621 97.064 22.3263 78.425 22.3263 76.5166C22.3263 74.6083 18.2884 68.5184 18.2884 67.4399C18.2884 66.3615 18.2884 56.749 18.2884 56.749H15.0486C15.0486 56.749 15.0486 66.3615 15.0486 67.4399C15.0486 68.5184 11.0039 74.6151 11.0016 76.5143C10.9993 78.4136 10.4658 97.064 11.0016 97.064Z" fill="#DBDBDB"/>
<path d="M10.7697 84.7271H22.5664V93.2771H10.7697V84.7271Z" fill="#263238"/>
<path d="M15.0636 53.728H18.2168V55.381H15.0636V53.728Z" fill="#C7C7C7"/>
<path d="M15.5619 55.3789H17.7188V56.6831H15.5619V55.3789Z" fill="#DBDBDB"/>
<path d="M14.7784 55.6089H18.5586V56.9358H14.7784V55.6089Z" fill="#C7C7C7"/>
<path d="M103.672 97.071C73.7697 96.9319 40.2286 96.9296 10.3287 97.071C40.2309 97.2101 73.772 97.2101 103.672 97.071Z" fill="#263238"/>
<path d="M10.7157 73.8032C13.8963 78.1101 17.2114 83.1079 18.0117 88.5092C18.0117 88.5913 17.8909 88.6164 17.8726 88.5366C17.5067 87.0611 17.0366 85.6135 16.4659 84.2046C14.3751 83.63 12.3231 83.1558 11.2219 81.081C10.1024 78.9492 10.246 76.1676 10.4581 73.8443C10.4877 73.7257 10.661 73.7189 10.7157 73.8032Z" fill="#DD0B0E"/>
<path d="M16.4513 84.1706C15.0218 80.9649 13.1886 77.7456 10.8585 75.1099C10.8425 75.0916 10.8174 75.1099 10.8311 75.1372C12.3587 77.0137 13.517 79.0588 14.6501 81.1382C13.5968 80.0689 12.4431 79.1113 11.4467 77.9781C11.4262 77.9576 11.3966 77.9895 11.4148 78.01C12.4043 79.2002 13.4873 80.4907 14.7755 81.3708C15.1221 82.0092 15.4724 82.6483 15.8266 83.2882C15.74 83.2404 15.6488 83.197 15.5598 83.1537C15.5439 83.1537 15.5302 83.1697 15.5462 83.1765C15.6442 83.2267 15.7422 83.2791 15.8448 83.3224C16.0113 83.6257 16.1777 83.9289 16.3487 84.2344C16.3875 84.2983 16.481 84.239 16.4513 84.1706Z" fill="#263238"/>
<path d="M15.3891 83.0535C14.5344 82.5737 13.718 82.0287 12.9472 81.4233C12.9267 81.4073 12.8971 81.4347 12.9176 81.4529C13.664 82.0974 14.4818 82.6543 15.3549 83.1128C15.3628 83.1173 15.3721 83.1185 15.3809 83.1162C15.3897 83.1138 15.3971 83.1081 15.4017 83.1002C15.4062 83.0924 15.4074 83.083 15.4051 83.0742C15.4027 83.0655 15.397 83.058 15.3891 83.0535Z" fill="#263238"/>
<path d="M18.3986 87.7069C18.3986 87.7707 18.28 87.7707 18.2823 87.7069C18.2641 85.9285 18.2823 84.1433 18.2527 82.3557C17.7967 81.4437 16.8185 80.9262 16.1391 80.1897C15.65 79.6523 15.2246 79.0601 14.8714 78.425C14.0523 76.9057 13.5511 75.2355 13.3985 73.5162C13.2116 71.6147 13.9321 65.3355 14.7346 65.5544C15.1519 65.6684 16.4971 68.7783 16.855 69.8043C17.4318 71.4988 17.8553 73.2416 18.1204 75.0119C18.7702 79.1957 18.7155 83.4935 18.3986 87.7069Z" fill="#DD0B0E"/>
<path d="M18.4092 80.0278C18.3111 77.7775 17.8027 75.5066 17.3284 73.3223C16.8177 70.9717 16.2204 68.7623 15.0097 66.6602C15.0051 66.6523 14.9977 66.6466 14.9889 66.6442C14.9801 66.6419 14.9708 66.6431 14.9629 66.6476C14.9551 66.6522 14.9493 66.6596 14.947 66.6684C14.9446 66.6772 14.9459 66.6865 14.9504 66.6944C15.757 68.3256 16.3816 70.0406 16.8132 71.8084C16.7311 71.683 16.633 71.5622 16.5487 71.4413C16.5168 71.3957 16.4392 71.4413 16.4712 71.4892C16.5797 71.6789 16.7065 71.8576 16.8496 72.0228C16.8496 72.0228 16.8496 72.0228 16.8656 72.0228C17.2806 73.7031 17.5815 75.4222 17.8369 77.1368C17.8164 77.1163 17.7981 77.0912 17.7799 77.0707C17.7768 77.0687 17.7731 77.0677 17.7694 77.0678C17.7656 77.0679 17.7621 77.0692 17.7591 77.0714C17.7561 77.0737 17.7539 77.0767 17.7527 77.0803C17.7515 77.0838 17.7515 77.0876 17.7525 77.0912C17.7844 77.1482 17.8209 77.2052 17.8551 77.2622C17.9851 78.1309 18.1036 78.9996 18.2245 79.8614C16.6741 78.5367 15.3494 76.9749 14.6038 75.0506C14.6038 75.0506 14.5856 75.0506 14.5879 75.0506C15.3198 77.0456 16.4734 78.8217 18.2473 80.0324C18.2815 80.2604 18.3134 80.4884 18.3453 80.7164C18.3453 80.7643 18.4297 80.7529 18.4297 80.705C18.4297 80.5021 18.4183 80.2946 18.4115 80.0894C18.4184 80.0805 18.4219 80.0695 18.4215 80.0582C18.4211 80.0469 18.4167 80.0362 18.4092 80.0278Z" fill="#263238"/>
<path d="M17.6801 76.7721C16.4945 75.0051 15.3887 73.2883 14.5223 71.3343C14.5223 71.3115 14.4744 71.3343 14.4836 71.3503C15.2132 73.2929 16.2369 75.2582 17.6208 76.8223C17.6482 76.8496 17.7029 76.8086 17.6801 76.7721Z" fill="#263238"/>
<path d="M16.1064 70.9077C15.6139 70.0413 15.0963 69.1954 14.6357 68.3108C14.6221 68.2857 14.5879 68.3108 14.5993 68.3313C14.978 69.2552 15.4574 70.1345 16.0288 70.9533C16.0358 70.9616 16.0454 70.9671 16.056 70.969C16.0667 70.9708 16.0776 70.9688 16.0869 70.9633C16.0962 70.9579 16.1032 70.9493 16.1068 70.9391C16.1104 70.9289 16.1102 70.9178 16.1064 70.9077Z" fill="#263238"/>
<path d="M16.2985 71.2749V71.2917C16.2985 71.2917 16.3081 71.2749 16.2985 71.2749Z" fill="#263238"/>
<path d="M19.6082 82.5631C19.6319 83.742 19.7709 84.9157 20.0232 86.0675C20.0049 86.1936 19.9867 86.3213 19.9684 86.4505C19.6026 85.1754 19.3898 83.8612 19.3346 82.5357C19.324 82.5174 19.3184 82.4965 19.3184 82.4753C19.3184 82.4541 19.324 82.4333 19.3346 82.4149C19.2847 80.6421 19.4169 78.8688 19.729 77.123C20.2785 73.8535 21.4824 70.7162 23.7624 68.2675C23.781 68.2514 23.8031 68.2397 23.827 68.2334C23.8509 68.2271 23.8758 68.2263 23.9 68.2312C23.9242 68.236 23.947 68.2463 23.9666 68.2613C23.9862 68.2763 24.0021 68.2956 24.0132 68.3177C24.9252 70.6569 24.6128 73.4499 23.8285 75.7824C23.4014 77.052 22.7899 78.252 22.0136 79.3437C21.2316 80.4313 20.2352 81.3615 19.6082 82.5631Z" fill="#DD0B0E"/>
<path d="M23.4851 69.3664C21.3237 72.873 19.8212 77.0295 19.6365 81.1722C19.6365 81.2452 19.7573 81.2635 19.7665 81.1905C19.8189 80.8166 19.8759 80.4495 19.9352 80.0801C20.8289 79.2229 21.7455 78.32 22.3862 77.2506C22.3876 77.2465 22.3876 77.242 22.3862 77.2378C22.3849 77.2336 22.3822 77.23 22.3786 77.2275C22.3751 77.2249 22.3708 77.2236 22.3664 77.2236C22.362 77.2237 22.3577 77.2252 22.3542 77.2278C21.5768 78.1148 20.8517 79.0268 19.9739 79.8179C20.129 78.9059 20.3114 77.9939 20.528 77.1138C20.5873 77.0477 20.642 76.9793 20.699 76.9132C20.756 76.8471 20.6739 76.8038 20.6351 76.8494L20.5827 76.9064C20.8901 75.689 21.2708 74.4913 21.7227 73.3199C22.2722 72.6633 22.8878 72.0956 23.2868 71.3067C23.2892 71.3031 23.2901 71.2986 23.2892 71.2943C23.2884 71.2901 23.2858 71.2863 23.2822 71.2839C23.2786 71.2815 23.2741 71.2806 23.2699 71.2814C23.2656 71.2823 23.2618 71.2848 23.2594 71.2884C22.9379 71.7444 22.6256 72.2004 22.2608 72.6154C22.1148 72.7818 21.9552 72.9392 21.8048 73.101C22.3037 71.8306 22.8951 70.5984 23.574 69.4143C23.5804 69.4025 23.5818 69.3887 23.5779 69.3758C23.5741 69.363 23.5653 69.3522 23.5535 69.3459C23.5417 69.3395 23.5279 69.3381 23.5151 69.342C23.5022 69.3458 23.4915 69.3546 23.4851 69.3664Z" fill="#263238"/>
<path d="M23.0495 73.6919C22.3518 74.6313 21.5561 75.5273 20.9063 76.4986C20.888 76.5283 20.9291 76.5556 20.9519 76.5351C21.7863 75.7531 22.4909 74.6837 23.0973 73.7193C23.1156 73.6897 23.07 73.6646 23.0495 73.6919Z" fill="#263238"/>
<path d="M20.8073 76.7175L20.7776 76.7471C20.7744 76.7515 20.7728 76.7569 20.7731 76.7624C20.7735 76.7679 20.7759 76.773 20.7798 76.7769C20.7836 76.7808 20.7888 76.7831 20.7943 76.7835C20.7997 76.7839 20.8052 76.7823 20.8096 76.779L20.8392 76.7494C20.8425 76.745 20.8441 76.7396 20.8437 76.7341C20.8433 76.7286 20.841 76.7234 20.8371 76.7196C20.8332 76.7157 20.828 76.7133 20.8226 76.7129C20.8171 76.7126 20.8117 76.7142 20.8073 76.7175Z" fill="#263238"/>
<path d="M26.8705 76.1062C26.6972 77.9119 25.7488 80.0665 24.5905 81.4551C24.0818 82.0601 23.4519 82.5518 22.7414 82.8983C21.9412 83.295 21.1044 83.751 20.2745 84.0771C19.88 85.0795 19.5875 86.1191 19.4012 87.1801C19.3739 87.0889 19.3488 86.9955 19.3214 86.9043C19.8527 82.3374 22.8007 78.4318 26.5901 75.9238C26.6197 75.9042 26.6544 75.8937 26.69 75.8936C26.7255 75.8934 26.7603 75.9037 26.7901 75.9231C26.8199 75.9424 26.8434 75.9701 26.8576 76.0026C26.8719 76.0351 26.8764 76.0711 26.8705 76.1062Z" fill="#DD0B0E"/>
<path d="M25.5631 77.456C25.5905 77.4332 25.5631 77.3854 25.5266 77.4059C23.45 78.9476 21.7935 80.9859 20.709 83.3339C20.6816 83.3977 20.766 83.4525 20.8025 83.3886C20.978 83.0808 21.1581 82.7821 21.3405 82.488C22.2024 82.3261 23.0209 81.7174 23.6593 81.1405C23.6775 81.1268 23.6593 81.1018 23.6342 81.1154C23.3046 81.4173 22.9376 81.6756 22.5421 81.8838C22.191 82.0617 21.8125 82.1734 21.4454 82.317C21.7669 81.8086 22.0998 81.3229 22.4463 80.851C23.379 80.4963 24.2535 80.0045 25.041 79.3918C25.0446 79.3877 25.0468 79.3827 25.0473 79.3773C25.0478 79.3719 25.0466 79.3665 25.0438 79.3619C25.041 79.3573 25.0367 79.3537 25.0317 79.3517C25.0267 79.3497 25.0211 79.3493 25.0159 79.3507C24.2359 79.8224 23.4315 80.2524 22.6059 80.6389C23.1328 79.9443 23.7008 79.282 24.3068 78.6553C24.6009 78.5003 24.8996 78.3452 25.1823 78.1788C25.2051 78.1651 25.1823 78.1264 25.1641 78.1355C24.9282 78.2182 24.7031 78.3293 24.4938 78.4661C24.8358 78.1286 25.1869 77.7889 25.5631 77.456Z" fill="#263238"/>
<path d="M25.4846 79.0337C25.4336 79.0645 25.3849 79.0988 25.3387 79.1363C25.325 79.15 25.3387 79.1682 25.3569 79.1614C25.41 79.1366 25.4611 79.1076 25.5097 79.0747C25.537 79.0588 25.5119 79.0155 25.4846 79.0337Z" fill="#263238"/>
<path d="M13.4209 97.0706H23.7812L22.9445 87.636L22.7621 85.5566H14.4424L14.2577 87.636L13.4209 97.0706Z" fill="#455A64"/>
<path d="M14.2585 87.636H22.9453L22.7629 85.5566H14.4432L14.2585 87.636Z" fill="#263238"/>
<path d="M13.9463 84.1021H23.2578V86.1609H13.9463V84.1021Z" fill="#455A64"/>
<path d="M72.4562 24.5031C73.2565 24.5031 76.6264 23.6527 79.319 26.4662C81.8658 29.127 83.7992 37.9848 84.5174 39.8749C85.2356 41.765 87.8348 41.724 88.7354 43.9128C89.5106 45.7915 88.1837 46.6944 88.227 48.1444C88.2589 49.2685 89.595 50.7847 88.797 52.5585C88.0742 54.1705 86.4121 54.0679 85.4956 54.663C84.579 55.258 84.2689 57.6019 82.5316 58.45C80.7942 59.2982 78.9862 57.8572 78.0286 57.994C77.071 58.1308 76.3186 61.2248 73.1516 61.3776C69.9847 61.5303 68.733 58.9995 67.3696 58.6416C66.0061 58.2836 62.8802 59.6151 61.1839 58.1856C59.4876 56.756 58.9518 54.6402 58.1789 53.9334C57.406 53.2266 56.0288 53.5366 54.9572 51.8061C53.8856 50.0756 55.4429 48.6871 55.4725 47.0592C55.4953 45.9192 54.3736 45.0368 54.8455 43.247C55.493 40.7892 58.4137 40.9123 59.1889 38.3746C59.7954 36.3842 60.4908 27.9824 65.1625 25.3216C68.4001 23.4999 72.4562 24.5031 72.4562 24.5031Z" fill="#263238"/>
<path d="M84.3615 39.4189C84.5667 39.8316 84.9703 40.1029 85.3351 40.3606L86.4751 41.1061C87.2252 41.5963 87.9867 42.1002 88.5271 42.7774C88.8041 43.0925 89.0044 43.4675 89.1123 43.8729C89.2203 44.2783 89.2331 44.7032 89.1495 45.1144C89.0407 45.5297 88.8684 45.9258 88.6388 46.2886C88.3697 46.6855 88.1614 47.1205 88.0209 47.5791C87.9115 48.1399 88.1509 48.6347 88.3401 49.0337C88.5294 49.4327 88.7597 49.8431 88.9352 50.2444C89.2977 51.0378 89.4779 51.9133 89.1769 52.7113C89.0431 53.1041 88.7803 53.44 88.4313 53.6644C88.0581 53.8866 87.6455 54.0344 87.2161 54.0999C86.7806 54.1888 86.3292 54.2344 85.88 54.3005C85.4309 54.3666 84.9498 54.4487 84.6123 54.7679C84.984 54.4966 85.4514 54.4738 85.8937 54.4373C86.336 54.4008 86.8057 54.4031 87.2617 54.3507C87.7324 54.3051 88.1895 54.1671 88.6069 53.9448C89.0371 53.6981 89.3713 53.3132 89.5554 52.8527C89.9726 51.9407 89.7378 50.8919 89.3753 50.0597C89.1951 49.6288 88.9808 49.2252 88.7961 48.8239C88.6115 48.4227 88.4541 48.0282 88.5339 47.6839C88.7095 46.9361 89.4323 46.1905 89.6169 45.2193C89.7145 44.7407 89.6952 44.2456 89.5606 43.776C89.4261 43.3065 89.1803 42.8763 88.844 42.522C88.2079 41.8129 87.4031 41.3433 86.6187 40.8918L85.4263 40.2466C85.0296 40.0117 84.6169 39.7997 84.3615 39.4189Z" fill="#263238"/>
<path d="M61.209 30.5518C60.525 32.0383 60.2058 33.6434 59.7247 35.1802C59.483 35.9508 59.2687 36.7283 58.9723 37.4602C58.8372 37.822 58.6637 38.1682 58.4547 38.493C58.413 38.5689 58.3582 38.6368 58.2929 38.6936C58.2355 38.7601 58.1687 38.8177 58.0945 38.8646C57.9395 38.9764 57.7707 39.079 57.5998 39.1793C56.8875 39.5811 56.1965 40.0195 55.5295 40.4926C54.8706 40.9919 54.2527 41.6576 53.9974 42.4921C53.8593 42.9071 53.8295 43.3505 53.9107 43.7803C54.0126 44.1898 54.1904 44.5765 54.4351 44.9203C54.9025 45.5838 55.3471 46.2541 55.4793 47.0681C55.4793 46.2427 55.0416 45.4721 54.6517 44.7881C54.4469 44.459 54.3046 44.095 54.2322 43.7142C54.1856 43.3411 54.2342 42.9622 54.3736 42.613C54.6761 41.9033 55.1753 41.2949 55.8122 40.8596C56.4748 40.4096 57.1597 39.9934 57.8642 39.6125C58.0375 39.503 58.2131 39.3845 58.3841 39.2659C58.5727 39.1312 58.7331 38.9608 58.856 38.7643C59.0805 38.4056 59.2648 38.0233 59.4055 37.6243C59.6861 36.8558 59.9191 36.0708 60.1032 35.2736L60.6481 32.9002C60.7896 32.1072 60.9769 31.3231 61.209 30.5518Z" fill="#263238"/>
<path d="M57.3503 53.5024C57.7538 53.9174 57.8769 54.5125 58.0799 55.0483C58.2828 55.5841 58.4697 56.1427 58.6932 56.6853C58.9104 57.2387 59.1856 57.7676 59.514 58.2631C59.8488 58.7891 60.3065 59.2258 60.8478 59.5353C62.0357 60.0917 63.3216 59.8386 64.4205 59.4852C64.9791 59.3051 65.5195 59.0976 66.0667 58.9311C66.604 58.7262 67.1825 58.6527 67.7539 58.7168C67.1999 58.5071 66.5774 58.5869 66.0051 58.6849C65.4329 58.7829 64.8651 58.9722 64.3134 59.1021C63.2167 59.3666 62.0334 59.5399 61.0803 59.0725C60.6112 58.8057 60.2114 58.4324 59.913 57.9827C59.588 57.5183 59.3006 57.0289 59.0534 56.5189C58.7912 56.0082 58.5564 55.4792 58.3124 54.9525C58.1847 54.6903 58.0525 54.4281 57.9111 54.1728C57.7862 53.904 57.5928 53.6728 57.3503 53.5024Z" fill="#263238"/>
<path d="M75.3417 58.8237C74.3271 67.8912 64.8856 91.7902 61.3949 94.1637C58.5609 96.0948 47.2589 98.3725 41.315 98.2198C38.8731 98.1559 37.5165 81.3774 41.1873 81.2383C47.5166 81.0103 51.4199 80.2351 53.1254 79.4143C54.4546 78.7737 60.7406 68.9104 69.9814 57.1319C73.4151 52.7566 75.9071 53.7005 75.3417 58.8237Z" fill="#AD6359"/>
<path d="M43.8656 97.6521C43.5761 97.7524 39.447 99.15 36.9664 99.5057C35.115 99.7725 29.7661 100.395 29.2714 98.3862C28.9316 97.0182 32.0347 96.2795 34.2167 95.7095C35.3567 95.4108 36.8638 94.4623 36.6426 93.7191C36.255 92.4195 33.2864 93.2517 31.2983 94.0633C27.4519 95.6297 22.1942 98.6826 20.2768 96.5713C19.5517 95.7756 20.678 94.6675 22.2444 93.6461C19.782 94.7473 17.2056 95.5727 16.3666 94.7177C15.8832 94.2321 15.9379 93.6643 16.3278 93.0624C15.5982 93.1924 14.9872 93.0624 14.6201 92.5449C13.9931 91.6716 14.5106 90.5863 15.4796 89.5353C15.3435 89.5007 15.2176 89.4343 15.1121 89.3416C15.0067 89.2488 14.9248 89.1323 14.8732 89.0017C13.6488 86.4071 22.3972 80.6843 25.1879 80.4244C33.3845 79.6537 41.727 81.5256 41.727 81.5256C44.4926 84.4554 43.8725 97.6475 43.8656 97.6521Z" fill="#AD6359"/>
<path d="M33.2276 88.7124C31.2979 88.7443 29.397 89.1857 27.6507 90.0074C25.4528 91.0517 23.9024 92.4174 21.994 93.7467C21.9438 93.7809 21.994 93.8607 22.0465 93.8242C22.9585 93.1949 26.6794 90.8602 27.6302 90.3517C29.3509 89.4005 31.2661 88.8547 33.2298 88.7557C33.2504 88.7466 33.2481 88.7124 33.2276 88.7124Z" fill="#263238"/>
<path d="M32.2222 85.1398C30.0585 85.4179 27.84 85.6938 25.7675 86.4074C23.4989 87.1895 21.5928 88.7171 19.7255 90.1808C18.6068 91.0609 17.5056 91.9646 16.4218 92.8918C16.3762 92.9305 16.4218 93.0103 16.4742 92.9716C18.3742 91.4516 20.3183 89.9924 22.3065 88.594C24.143 87.2852 26.2193 86.3508 28.4169 85.8443C29.6732 85.557 30.95 85.3677 32.2245 85.1785C32.2496 85.1739 32.2473 85.1375 32.2222 85.1398Z" fill="#263238"/>
<path d="M30.4063 81.8838C28.3224 82.016 26.5053 82.1232 24.5604 82.9577C21.984 84.0612 19.3529 86.1497 18.4272 86.9044C17.4058 87.7274 16.4117 88.5847 15.4336 89.458C15.3926 89.4922 15.4541 89.5629 15.4952 89.5287C17.7256 87.6306 20.0767 85.8789 22.5335 84.2846C23.6914 83.5069 24.9627 82.9131 26.3023 82.5245C27.6407 82.1574 29.0383 82.0411 30.4063 81.9066C30.4177 81.8975 30.4155 81.8838 30.4063 81.8838Z" fill="#263238"/>
<path d="M70.5834 79.859L59.6645 67.319C59.6645 67.319 67.5282 57.8661 72.6445 53.867C75.5105 51.628 77.2866 53.8214 77.0062 57.0955C76.0303 68.5525 70.5834 79.859 70.5834 79.859Z" fill="#DD0B0E"/>
<path d="M70.5834 79.859L59.6645 67.319C59.6645 67.319 67.5282 57.8661 72.6445 53.867C75.5105 51.628 77.2866 53.8214 77.0062 57.0955C76.0303 68.5525 70.5834 79.859 70.5834 79.859Z" fill="#37474F"/>
<path opacity="0.1" d="M60.9121 68.7418L70.5793 79.8613C70.5793 79.8613 76.0262 68.5525 77.0066 57.0955C77.1981 54.8452 76.4161 53.1078 74.9797 52.9688L60.9121 68.7418Z" fill="black"/>
<path d="M62.015 66.0331C63.855 67.8229 68.7046 72.8252 71.4314 76.4869C71.4474 76.5097 71.3699 76.5827 71.3516 76.5622C68.6156 73.8581 63.5791 68.0828 61.901 66.1403C61.8737 66.1038 61.9831 65.9989 62.015 66.0331Z" fill="#263238"/>
<path d="M103.74 97.1759L62.7458 97.071L65.2082 82.0982C65.2082 82.0982 61.6697 77.8027 62.34 73.1424C63.0742 68.0375 72.2785 55.0962 73.056 54.3689C76.1705 51.4437 80.5526 50.3173 83.9042 52.8527C94.2691 60.6868 103.74 97.1759 103.74 97.1759Z" fill="#455A64"/>
<path d="M62.9063 96.0971H103.449C103.388 95.8691 103.315 95.6001 103.233 95.3037H63.0385L62.9063 96.0971ZM63.5629 92.1299H102.323C102.405 92.4035 102.48 92.6657 102.551 92.9211H63.4307L63.5629 92.1299ZM64.085 88.9562H101.377L101.605 89.7473H63.9551L64.085 88.9562ZM64.6094 85.7824H100.38L100.631 86.5736H64.4795L64.6094 85.7824ZM65.1338 82.6064H99.3338C99.425 82.8739 99.5139 83.1384 99.6006 83.3998H65.0039L65.1338 82.6064ZM98.2394 79.4326C98.3352 79.6971 98.4264 79.9616 98.5199 80.2261H63.9801C63.8433 79.9821 63.7043 79.7153 63.5652 79.4326H98.2394ZM97.0857 76.2589C97.1861 76.5233 97.2841 76.7901 97.3821 77.0523H62.6532C62.5802 76.7947 62.5164 76.5279 62.4617 76.2589H97.0857ZM62.3499 73.1421C62.3499 73.1239 62.3499 73.1056 62.3499 73.0851H95.8659C95.9708 73.3496 96.0757 73.6118 96.1783 73.8763H62.2793C62.2907 73.6437 62.3157 73.3883 62.3499 73.1421ZM63.3851 69.9113H94.5663C94.6781 70.1735 94.7943 70.438 94.8969 70.7025H63.0659C63.1571 70.4517 63.2779 70.1827 63.3851 69.9113ZM64.956 66.7376H93.1619C93.285 66.9998 93.4035 67.2643 93.5244 67.5287H64.5479C64.6847 67.2597 64.8237 67.0043 64.9674 66.7376H64.956ZM66.78 63.5615H91.6274L92.0264 64.355H66.324C66.4813 64.0905 66.6386 63.826 66.8051 63.5615H66.78ZM68.7795 60.3878H89.9037C90.0542 60.6477 90.207 60.9122 90.3597 61.1812H68.2893C68.4565 60.9122 68.626 60.6477 68.7978 60.3878H68.7795ZM70.9227 57.214H87.8859C88.0683 57.4717 88.2485 57.7361 88.4286 58.0075H70.3915C70.5785 57.7316 70.7631 57.4671 70.941 57.214H70.9227ZM73.0454 54.3686C73.164 54.2561 73.2848 54.1467 73.4079 54.0403H85.2731C85.5239 54.2895 85.7724 54.5533 86.0186 54.8314H72.6806C72.7991 54.6697 72.927 54.5152 73.0637 54.3686H73.0454ZM81.4267 51.6577H77.9109C79.0716 51.3719 80.2843 51.3719 81.4449 51.6577H81.4267Z" fill="#37474F"/>
<path d="M72.3008 80.9217C74.1321 81.0847 75.9489 81.3827 77.7364 81.8131C78.621 82.0411 79.4897 82.3079 80.3584 82.5929C80.7916 82.7365 81.2248 82.8619 81.6625 82.9896C82.1168 83.1336 82.5869 83.2216 83.0624 83.2518C83.0697 83.2537 83.0762 83.258 83.0808 83.264C83.0854 83.27 83.0879 83.2773 83.0879 83.2849C83.0879 83.2924 83.0854 83.2997 83.0808 83.3057C83.0762 83.3117 83.0697 83.316 83.0624 83.3179C82.6125 83.3404 82.1615 83.332 81.7127 83.2928C81.2792 83.2407 80.8496 83.16 80.4268 83.0512C79.5284 82.8232 78.6392 82.5655 77.7409 82.3352C75.9306 81.8792 74.1203 81.405 72.2689 81.0721C72.2511 81.0659 72.2361 81.0534 72.2268 81.037C72.2176 81.0206 72.2146 81.0013 72.2185 80.9828C72.2224 80.9643 72.233 80.9479 72.2481 80.9367C72.2633 80.9254 72.282 80.9201 72.3008 80.9217Z" fill="#263238"/>
<path d="M67.7767 82.5359C69.2843 82.3745 70.7999 82.2984 72.3161 82.3079C73.0754 82.3079 73.8278 82.3695 74.5847 82.4424C74.945 82.4789 75.3052 82.52 75.6632 82.5656C76.0599 82.6157 76.4475 82.7183 76.8442 82.7639C76.8853 82.7639 76.8853 82.8323 76.8442 82.8301C76.4703 82.7981 76.0895 82.8301 75.7042 82.8301L74.5642 82.8004C73.8073 82.7822 73.0526 82.7708 72.2956 82.7457C70.7817 82.6955 69.2746 82.6591 67.7607 82.6591C67.6923 82.6659 67.6991 82.5496 67.7767 82.5359Z" fill="#263238"/>
<path d="M42.6624 76.863C41.7937 77.4695 42.2223 77.8822 42.9747 77.4308C43.7271 76.9793 47.6966 74.6423 47.8448 74.5557C47.8812 74.5298 47.9225 74.5118 47.9663 74.5029C48.01 74.494 48.0551 74.4943 48.0987 74.5039C48.1423 74.5135 48.1833 74.5322 48.2193 74.5586C48.2552 74.5851 48.2852 74.6188 48.3073 74.6576C48.3294 74.6963 48.3431 74.7393 48.3476 74.7837C48.3521 74.8281 48.3472 74.8729 48.3333 74.9153C48.3193 74.9577 48.2967 74.9967 48.2667 75.0298C48.2368 75.0629 48.2003 75.0894 48.1595 75.1074L43.2689 78.0395C42.6715 78.3952 42.3911 79.3072 43.6359 78.5616L48.4673 75.6683C48.4984 75.6418 48.5351 75.6226 48.5746 75.6123C48.6142 75.6019 48.6556 75.6006 48.6957 75.6085C48.7358 75.6164 48.7737 75.6333 48.8064 75.6578C48.839 75.6824 48.8658 75.7141 48.8845 75.7504C48.9052 75.7867 48.918 75.827 48.922 75.8686C48.9261 75.9102 48.9213 75.9522 48.9079 75.9919C48.8946 76.0315 48.873 76.0678 48.8446 76.0985C48.8162 76.1292 48.7816 76.1535 48.7431 76.1699L43.9118 79.0655C42.6669 79.8111 43.563 80.0186 44.1603 79.6606L49.0509 76.7308C49.0878 76.7079 49.129 76.6928 49.172 76.6864C49.215 76.6801 49.2588 76.6827 49.3008 76.694C49.3427 76.7053 49.3819 76.7251 49.4158 76.7522C49.4498 76.7793 49.4778 76.8131 49.4982 76.8514C49.5185 76.8898 49.5308 76.9319 49.5342 76.9753C49.5376 77.0186 49.532 77.0621 49.5179 77.1032C49.5037 77.1442 49.4813 77.182 49.452 77.214C49.4226 77.246 49.387 77.2717 49.3473 77.2894C49.1969 77.3783 45.2661 79.7769 44.5115 80.2283C43.7568 80.6798 43.8822 81.2748 44.8238 80.796C44.8238 80.796 51.071 77.4878 51.9169 76.5461C52.7628 75.6045 52.1449 74.6309 53.5311 73.7828C54.3953 73.2606 69.213 65.0002 70.6859 63.4475C72.1587 61.8949 71.4884 61.1037 71.4884 61.1037C71.4884 61.1037 71.1783 60.1005 69.1514 60.6477C67.1245 61.1949 53.3145 72.5288 52.4755 72.6473C50.859 72.8753 50.9661 72.3213 49.7577 72.6108C48.5493 72.9004 42.6624 76.863 42.6624 76.863Z" fill="#C7C7C7"/>
<path d="M48.9512 91.656C48.9512 91.656 48.7847 82.5565 48.7414 80.1967C48.6981 77.8369 48.3151 75.2992 45.3875 75.1579C43.9557 75.0895 41.7715 76.1588 41.5435 78.0307C41.1376 81.3595 44.3935 81.3823 44.3935 81.3823L44.5303 88.8789L48.9512 91.656Z" fill="#DD0B0E"/>
<g opacity="0.2">
<path opacity="0.2" d="M42.9642 80.8688C43.1467 80.8695 43.3261 80.8214 43.484 80.7298C44.0996 80.3832 44.4097 79.4507 44.4347 78.7325C44.4667 77.8615 44.2227 76.7101 43.6071 76.2473C43.4595 76.136 43.286 76.0641 43.103 76.0381C42.9199 76.0122 42.7333 76.0332 42.5606 76.0991C42.5487 76.1015 42.5375 76.1065 42.5276 76.1136C42.5177 76.1206 42.5095 76.1297 42.5034 76.1402C42.4972 76.1507 42.4934 76.1624 42.4921 76.1744C42.4907 76.1865 42.492 76.1987 42.4957 76.2103C42.4994 76.2218 42.5054 76.2325 42.5135 76.2416C42.5216 76.2506 42.5315 76.2579 42.5426 76.2629C42.5536 76.2679 42.5656 76.2705 42.5778 76.2705C42.5899 76.2706 42.6019 76.2681 42.613 76.2632C42.7596 76.2062 42.9181 76.1872 43.074 76.2079C43.2299 76.2287 43.378 76.2885 43.5045 76.3818C44.0449 76.7922 44.2957 77.8706 44.2637 78.7256C44.2409 79.3982 43.9582 80.2646 43.3996 80.5816C43.2383 80.666 43.0572 80.7054 42.8754 80.6953C42.6935 80.6853 42.5178 80.6263 42.3668 80.5246C42.3473 80.5174 42.3259 80.5175 42.3064 80.5248C42.287 80.5321 42.2708 80.5462 42.2608 80.5644C42.2509 80.5826 42.2478 80.6038 42.2522 80.6242C42.2566 80.6445 42.2681 80.6625 42.2847 80.675C42.4913 80.7957 42.725 80.8624 42.9642 80.8688Z" fill="black"/>
<path opacity="0.2" d="M44.7716 80.4837C44.8179 80.4881 44.8644 80.4881 44.9107 80.4837C45.3006 80.4244 45.8432 79.6446 45.809 78.3906C45.7771 77.2666 45.3279 75.3833 43.8551 75.3833H43.8072C43.7869 75.3866 43.7685 75.397 43.7552 75.4127C43.7419 75.4284 43.7346 75.4483 43.7346 75.4688C43.7346 75.4894 43.7419 75.5092 43.7552 75.5249C43.7685 75.5406 43.7869 75.551 43.8072 75.5543H43.8482C45.1934 75.5543 45.6038 77.3327 45.6334 78.3952C45.6654 79.5762 45.1615 80.2716 44.8811 80.3149C44.8146 80.3326 44.7449 80.334 44.6778 80.3189C44.6107 80.3038 44.5482 80.2727 44.4957 80.2283C44.3475 80.0824 44.3019 79.7563 44.3635 79.2821C44.3651 79.271 44.3645 79.2597 44.3617 79.2489C44.3588 79.238 44.3539 79.2278 44.3471 79.2189C44.3403 79.21 44.3318 79.2025 44.3221 79.1969C44.3124 79.1913 44.3017 79.1877 44.2905 79.1863C44.2679 79.1838 44.2451 79.1902 44.2272 79.2043C44.2093 79.2184 44.1976 79.239 44.1948 79.2616C44.1241 79.8042 44.1834 80.1599 44.3749 80.3491C44.4286 80.3971 44.4914 80.4337 44.5596 80.4568C44.6277 80.4799 44.6998 80.489 44.7716 80.4837Z" fill="black"/>
<path opacity="0.2" d="M44.7125 81.5484C45.3005 81.5689 45.8733 81.3586 46.3085 80.9625C47.1931 80.1371 47.2524 78.7258 47.2387 78.1558C47.1977 76.6328 46.3677 75.0664 45.0453 75.0664H45.0225C45.0113 75.0664 45.0001 75.0687 44.9897 75.073C44.9793 75.0774 44.9699 75.0838 44.9621 75.0919C44.9542 75.1 44.948 75.1096 44.9439 75.1201C44.9398 75.1306 44.9379 75.1418 44.9382 75.153C44.9375 75.1645 44.9393 75.176 44.9434 75.1867C44.9475 75.1974 44.9539 75.2071 44.9622 75.2151C44.9704 75.2231 44.9802 75.2292 44.9911 75.2331C45.0019 75.2369 45.0134 75.2384 45.0248 75.2374H45.0453C46.2469 75.2374 47.0289 76.749 47.0677 78.1604C47.0814 78.7076 47.0244 80.0596 46.1922 80.8371C45.9503 81.0507 45.6643 81.2084 45.3546 81.2991C45.0449 81.3897 44.719 81.411 44.4001 81.3615C44.3776 81.3601 44.3554 81.3674 44.3381 81.3818C44.3207 81.3962 44.3095 81.4166 44.3066 81.439C44.3054 81.4503 44.3064 81.4617 44.3096 81.4725C44.3129 81.4834 44.3183 81.4935 44.3255 81.5022C44.3328 81.5109 44.3417 81.5181 44.3517 81.5233C44.3618 81.5285 44.3728 81.5316 44.3841 81.5325C44.4932 81.5435 44.6028 81.5489 44.7125 81.5484Z" fill="black"/>
<path opacity="0.2" d="M43.4527 80.2076C43.6737 80.2013 43.8897 80.1411 44.082 80.0321C44.0922 80.027 44.1013 80.0199 44.1087 80.0113C44.1161 80.0026 44.1217 79.9926 44.1251 79.9817C44.1285 79.9709 44.1297 79.9594 44.1285 79.9481C44.1274 79.9367 44.124 79.9258 44.1185 79.9158C44.1135 79.9059 44.1065 79.897 44.0979 79.8899C44.0894 79.8828 44.0795 79.8774 44.0688 79.8742C44.0582 79.871 44.047 79.87 44.0359 79.8713C44.0248 79.8726 44.0142 79.8761 44.0045 79.8816C43.5804 80.1096 43.2361 80.0891 42.9762 79.8474C42.4906 79.3914 42.4518 78.313 42.6616 77.8342C42.7222 77.6616 42.8218 77.5054 42.9527 77.3776C43.0836 77.2499 43.2423 77.1541 43.4163 77.0977C43.5406 77.0716 43.6695 77.076 43.7918 77.1106C43.9141 77.1451 44.0262 77.2088 44.1185 77.2961C44.1347 77.3118 44.1563 77.3206 44.1789 77.3206C44.2015 77.3206 44.2232 77.3118 44.2393 77.2961C44.2549 77.2803 44.2637 77.259 44.2637 77.2368C44.2637 77.2146 44.2549 77.1933 44.2393 77.1775C44.1264 77.0746 43.9905 77.0002 43.8429 76.9606C43.6954 76.9209 43.5405 76.9171 43.3912 76.9495C43.191 77.0122 43.008 77.1201 42.8562 77.2648C42.7044 77.4095 42.5879 77.5871 42.5157 77.784C42.2877 78.3175 42.3264 79.4803 42.8713 79.9887C43.0301 80.1332 43.2381 80.2115 43.4527 80.2076Z" fill="black"/>
<path opacity="0.2" d="M46.3805 90.1691C46.4031 90.1685 46.4245 90.1591 46.4403 90.1429C46.456 90.1267 46.4649 90.105 46.4648 90.0824L46.2984 80.983C46.2984 80.9374 46.2574 80.91 46.2118 80.9009C46.1892 80.9015 46.1677 80.9109 46.152 80.927C46.1362 80.9432 46.1274 80.9649 46.1274 80.9875L46.2938 90.0847C46.2938 90.096 46.2961 90.1071 46.3005 90.1175C46.3049 90.1279 46.3113 90.1373 46.3194 90.1452C46.3274 90.1531 46.337 90.1592 46.3475 90.1633C46.358 90.1674 46.3692 90.1694 46.3805 90.1691Z" fill="black"/>
<path opacity="0.2" d="M47.652 90.9125C47.6746 90.9119 47.696 90.9025 47.7118 90.8863C47.7275 90.8701 47.7363 90.8484 47.7363 90.8258C47.6976 88.6598 47.6748 86.8541 47.6565 85.2603C47.5973 80.258 47.5722 78.1923 47.1344 77.2667C47.1246 77.2463 47.1071 77.2306 47.0858 77.2229C47.0645 77.2152 47.041 77.2162 47.0204 77.2256C47.0101 77.2303 47.0009 77.2369 46.9932 77.2452C46.9855 77.2535 46.9796 77.2633 46.9758 77.2739C46.9719 77.2846 46.9703 77.2959 46.9709 77.3071C46.9715 77.3184 46.9744 77.3295 46.9794 77.3396C47.4012 78.2288 47.4354 80.4313 47.4855 85.2626C47.5038 86.8586 47.5266 88.6621 47.5653 90.8281C47.5653 90.8394 47.5676 90.8505 47.572 90.8609C47.5763 90.8713 47.5828 90.8807 47.5908 90.8886C47.5989 90.8964 47.6085 90.9026 47.619 90.9067C47.6295 90.9108 47.6407 90.9128 47.652 90.9125Z" fill="black"/>
<path opacity="0.2" d="M45.2382 89.4351C45.2604 89.434 45.2813 89.4243 45.2966 89.4082C45.3118 89.3921 45.3203 89.3707 45.3203 89.3485L45.1767 81.4346C45.1755 81.4124 45.1659 81.3916 45.1498 81.3763C45.1336 81.361 45.1123 81.3525 45.09 81.3525C45.0788 81.3525 45.0676 81.3548 45.0572 81.3592C45.0468 81.3636 45.0374 81.37 45.0296 81.378C45.0217 81.3861 45.0155 81.3957 45.0114 81.4062C45.0073 81.4167 45.0054 81.4279 45.0057 81.4392L45.1493 89.3508C45.1505 89.3736 45.1604 89.395 45.1769 89.4107C45.1935 89.4264 45.2154 89.4352 45.2382 89.4351Z" fill="black"/>
</g>
<path opacity="0.1" d="M44.5074 87.6021L44.5302 88.8697L48.9512 91.6559L48.9101 89.3759C47.8454 88.8447 46.01 88.7056 46.01 88.7056C46.01 88.7056 45.3191 87.7799 44.5074 87.6021Z" fill="black"/>
<path d="M88.0081 57.2459C97.3356 70.8712 105.726 96.0834 102.162 100.548C98.1906 105.507 85.4614 87.5129 86.102 86.7924C86.6447 86.1791 82.682 72.0043 81.2707 59.8998C79.9004 48.2353 85.6939 53.8783 88.0081 57.2459Z" fill="#AD6359"/>
<path d="M99.4883 73.63L82.8602 73.9104C82.8602 73.9104 80.6897 61.8059 80.9222 55.3193C81.0545 51.685 83.1703 51.8788 85.4959 54.1998C93.6378 62.3257 99.4883 73.63 99.4883 73.63Z" fill="#37474F"/>
<path d="M83.3962 71.2819C85.9521 71.0265 92.9015 70.5363 97.4593 70.8054C97.4866 70.8054 97.4935 70.9125 97.4593 70.9148C93.6334 71.2614 85.9658 71.405 83.3985 71.4369C83.3575 71.4392 83.3483 71.2864 83.3962 71.2819Z" fill="#263238"/>
<path d="M84.8867 73.8717C84.2027 73.8261 83.5347 73.7988 82.8575 73.7805L82.9829 73.8854C82.7891 72.0477 82.5269 70.2169 82.2442 68.3952C81.9615 66.5734 81.6195 64.7472 81.2 62.9482C81.3345 64.795 81.5579 66.6282 81.8156 68.459C82.0732 70.2898 82.3764 72.107 82.7276 73.931L82.7504 74.0427H82.853C83.5339 73.9986 84.2118 73.9416 84.8867 73.8717Z" fill="#263238"/>
<path d="M81.7031 66.61C81.6181 66.2262 81.4888 65.8536 81.3178 65.4996C81.1506 65.1428 80.9554 64.7997 80.7341 64.4736C80.7407 64.6735 80.7752 64.8716 80.8367 65.0619C80.8911 65.2513 80.9612 65.4359 81.0465 65.6136C81.2122 65.9779 81.4338 66.314 81.7031 66.61Z" fill="#263238"/>
<path d="M100.863 101.3C98.3959 102.367 91.5719 101.631 78.7469 91.3322C76.7975 89.7681 81.793 72.5108 84.1391 73.7898C87.1031 75.3995 93.9431 80.9376 94.6909 81.5418C101.004 86.6604 103.699 100.076 100.863 101.3Z" fill="#AD6359"/>
<path d="M87.8574 77.1712C87.8574 77.1712 83.2336 71.6809 79.9093 69.5491C75.4611 66.6946 70.4428 66.0607 68.3247 65.9216C63.9015 65.6344 53.0099 67.9919 53.1421 71.2477C53.2607 74.1958 64.2731 71.2204 64.2731 71.2204C64.2731 71.2204 52.547 72.4014 53.3519 75.924C54.1567 79.4466 66.7332 75.2674 66.7332 75.2674C66.7332 75.2674 54.7108 76.7494 56.1084 80.2514C57.1618 82.8985 68.7761 79.7544 68.7761 79.7544C68.7761 79.7544 58.45 81.0996 59.4167 83.8584C60.486 86.9159 71.389 84.6883 71.389 84.6883C75.037 91.3003 79.4761 92.9739 82.789 93.781C83.5687 93.9862 87.8574 77.1712 87.8574 77.1712Z" fill="#AD6359"/>
<path d="M68.304 70.5543C66.9201 70.6409 65.5202 70.723 64.1499 70.9328C62.7796 71.1425 61.4139 71.4047 60.0733 71.7422C56.7764 72.5698 54.8293 73.6049 54.9683 73.5548C57.9597 72.3509 62.8503 71.5187 64.2228 71.3067C65.5954 71.0946 66.9452 70.8165 68.3132 70.6044C68.3474 70.5999 68.336 70.552 68.304 70.5543Z" fill="#263238"/>
<path d="M69.1562 75.4859C67.396 75.6752 65.6404 75.8006 63.8871 76.0673C62.1338 76.3341 60.5127 76.7377 58.7913 77.123C58.659 77.1526 58.7183 77.2142 58.8528 77.1914C60.5879 76.8744 62.2158 76.7149 63.9555 76.4185C65.6951 76.1221 67.4211 75.7595 69.163 75.527C69.1904 75.5247 69.1812 75.4837 69.1562 75.4859Z" fill="#263238"/>
<path d="M70.6496 79.5879C67.9433 79.7407 65.2688 80.3928 62.6696 81.0927C62.5397 81.1292 62.6263 81.1999 62.7608 81.1702C65.4079 80.6208 67.4782 80.1716 70.6633 79.6837C70.7043 79.6746 70.7066 79.5857 70.6496 79.5879Z" fill="#263238"/>
<path d="M71.3789 84.6973C68.5015 85.1897 65.5512 85.6366 62.6351 85.4291C61.9221 85.3829 61.2214 85.2212 60.5603 84.9503C59.4682 84.4487 59.2607 83.4501 60.2616 82.6977C61.5726 81.6626 63.5243 81.0834 65.061 80.4314C62.5211 80.8121 59.7099 81.4756 57.1836 80.7848C55.1841 80.0666 56.6045 78.6279 57.7969 77.9462C58.5584 77.5101 59.35 77.1291 60.1659 76.8062L59.0259 77.0342C58.182 77.1964 57.3266 77.2917 56.4677 77.3192C55.6241 77.3192 54.7053 77.3009 53.9802 76.8153C54.6779 77.3556 55.6173 77.4218 56.4677 77.4605C57.34 77.4809 58.2123 77.4214 59.0737 77.2827L59.0031 77.041C57.8631 77.5472 56.568 78.0944 55.9228 79.2412C55.2388 80.8372 57.3843 81.4072 58.5562 81.4596C60.066 81.5499 61.5811 81.4696 63.0729 81.2202L62.9475 80.7848C61.7117 81.3365 59.8261 81.9977 59.2561 83.3361C58.962 84.1729 59.6506 85.0187 60.3961 85.3106C63.1983 86.4506 68.4445 85.3904 71.3789 84.7018V84.6973Z" fill="#263238"/>
<path d="M84.8861 73.8721C87.9413 76.3299 91.9427 79.2734 94.7835 81.9068C96.4267 83.5869 97.8397 85.4775 98.9856 87.5293C99.4528 88.3501 99.8686 89.1991 100.23 90.0715C99.1304 86.3879 96.9732 83.1082 94.0266 80.6391C91.0991 78.2177 88.0074 76.0153 84.8861 73.8721Z" fill="#263238"/>
<path d="M80.6209 53.6051C80.5092 54.3871 77.2876 59.6744 73.7809 59.8135C72.6409 59.8591 72.1188 53.6233 72.1188 53.6233L71.9752 53.1673L69.9733 46.8449L77.1234 41.3273L78.154 40.584C78.154 40.584 78.5895 42.3487 79.107 44.5535C79.1321 44.6561 79.1572 44.7564 79.18 44.8681C79.2028 44.9798 79.2461 45.0961 79.2712 45.2238C79.3533 45.5521 79.4353 45.8895 79.4992 46.2247C79.5585 46.4801 79.6155 46.7286 79.6656 46.9976C79.7158 47.2667 79.7751 47.5311 79.8343 47.8025C80.3587 50.4837 80.6643 53.2745 80.6209 53.6051Z" fill="#AD6359"/>
<path d="M69.9665 46.8494L71.9706 53.1719L72.1142 53.6279C72.1142 53.6279 72.1142 53.6666 72.1142 53.735C75.4741 51.9821 78.0463 49.0229 79.3145 45.4518C79.2985 45.3788 79.2803 45.3081 79.262 45.2375C79.2369 45.1212 79.205 45.0095 79.1731 44.8818C79.1412 44.7541 79.1229 44.6697 79.0979 44.5671C78.5803 42.3624 78.1471 40.5977 78.1471 40.5977L77.1074 41.3364L69.9665 46.8494Z" fill="#263238"/>
<path d="M59.1274 40.1804C60.37 51.927 67.495 52.5129 70.0122 52.2439C72.2922 51.9999 80.0442 50.8759 80.0077 39.0655C79.9712 27.2551 74.1595 24.1178 68.9086 24.3983C63.6578 24.6787 57.8848 28.4361 59.1274 40.1804Z" fill="#AD6359"/>
<path d="M61.2193 40.5841C61.476 40.4999 61.7279 40.4017 61.9739 40.29C62.2635 40.1737 62.5052 40.1121 62.6876 39.834C62.7318 39.7524 62.7477 39.6585 62.7329 39.5669C62.718 39.4753 62.6732 39.3912 62.6055 39.3278C62.3023 39.0724 61.9215 39.1272 61.5613 39.2503C61.2008 39.3645 60.8954 39.6082 60.704 39.9343C60.6643 40.0121 60.6478 40.0997 60.6565 40.1866C60.6652 40.2736 60.6987 40.3562 60.753 40.4246C60.8073 40.4931 60.8801 40.5445 60.9627 40.5728C61.0454 40.601 61.1344 40.605 61.2193 40.5841Z" fill="#263238"/>
<path d="M69.0187 39.2161C68.7484 39.218 68.4782 39.205 68.2093 39.1774C67.8992 39.1591 67.6507 39.1774 67.3908 38.979C67.3237 38.9151 67.2796 38.8309 67.2652 38.7394C67.2508 38.6479 67.2668 38.5543 67.311 38.4728C67.5184 38.1354 67.9038 38.0624 68.2777 38.0693C68.6561 38.0624 69.0233 38.1983 69.306 38.45C69.3643 38.5121 69.4041 38.5892 69.4208 38.6727C69.4375 38.7562 69.4306 38.8427 69.4007 38.9224C69.3708 39.0022 69.3191 39.0719 69.2516 39.1238C69.1841 39.1757 69.1034 39.2077 69.0187 39.2161Z" fill="#263238"/>
<path d="M67.7037 41.1837C67.7037 41.1518 67.7698 41.2134 67.7721 41.2453C67.8587 42.0456 68.089 42.9484 68.8414 43.1126C68.8642 43.1126 68.8665 43.1582 68.8414 43.1582C67.9431 43.1559 67.6558 41.9521 67.7037 41.1837Z" fill="#263238"/>
<path d="M68.2953 40.2534C69.5538 39.9798 70.0075 42.5334 68.8425 42.7888C67.6774 43.0441 67.2396 40.4837 68.2953 40.2534Z" fill="#263238"/>
<path d="M68.8189 40.2987C69.0674 40.4035 69.3296 40.6201 69.601 40.5996C69.9156 40.5745 70.1026 40.2645 70.2576 39.9726C70.2736 39.9407 70.3009 39.9589 70.3078 39.9931C70.4013 40.4833 70.3078 41.0191 69.7948 41.1833C69.3388 41.3361 68.9124 40.9553 68.7049 40.4993C68.6639 40.4058 68.7209 40.2576 68.8189 40.2987Z" fill="#263238"/>
<path d="M63.2119 42.0341C63.1982 42.0067 63.1571 42.0842 63.164 42.1161C63.335 42.9027 63.392 43.8307 62.7376 44.2274C62.7171 44.2388 62.7376 44.2776 62.7536 44.2685C63.5972 43.9835 63.4991 42.7523 63.2119 42.0341Z" fill="#263238"/>
<path d="M62.3564 41.3409C61.0751 41.48 61.4444 44.0495 62.6369 43.9196C63.8293 43.7896 63.4303 41.2223 62.3564 41.3409Z" fill="#263238"/>
<path d="M61.8475 41.5871C61.6674 41.7536 61.5033 42.0294 61.2639 42.0796C60.988 42.1389 60.7418 41.8926 60.5252 41.651C60.5024 41.6282 60.4841 41.651 60.4887 41.6852C60.548 42.1776 60.7828 42.6655 61.2639 42.6929C61.7039 42.7157 61.9479 42.2483 62.0026 41.7422C62.0163 41.6487 61.9205 41.521 61.8475 41.5871Z" fill="#263238"/>
<path d="M69.8882 47.4944C69.7674 47.7338 69.6602 48.0416 69.4026 48.1579C69.1193 48.248 68.8199 48.276 68.5248 48.24C68.5184 48.2383 68.5116 48.2391 68.5057 48.2421C68.4998 48.245 68.4952 48.25 68.4927 48.2561C68.4902 48.2622 68.49 48.269 68.4921 48.2753C68.4942 48.2815 68.4985 48.2868 68.5042 48.2901C68.662 48.4035 68.8475 48.4719 69.0411 48.488C69.2347 48.504 69.429 48.4672 69.6032 48.3813C69.927 48.2035 69.9954 47.8478 69.9726 47.5058C69.9703 47.4579 69.9064 47.4602 69.8882 47.4944Z" fill="#263238"/>
<path d="M65.8204 45.5202C65.8204 45.5202 65.9777 46.724 66.1259 47.2689C66.1419 47.3214 66.2787 47.3077 66.4656 47.2689C66.4656 47.2689 66.4816 47.2689 66.4884 47.2689C66.978 47.2253 67.446 47.0474 67.841 46.755C68.236 46.4626 68.5427 46.0668 68.7274 45.6114C68.731 45.6048 68.7333 45.5976 68.7341 45.5901C68.7348 45.5826 68.7342 45.5751 68.7321 45.5679C68.7299 45.5607 68.7264 45.554 68.7217 45.5481C68.717 45.5423 68.7112 45.5374 68.7046 45.5338C68.698 45.5303 68.6908 45.528 68.6833 45.5272C68.6759 45.5264 68.6683 45.5271 68.6611 45.5292C68.6539 45.5313 68.6472 45.5348 68.6414 45.5395C68.6355 45.5442 68.6307 45.5501 68.6271 45.5566C68.0548 46.2817 67.3024 46.6351 66.4565 46.8836C66.3767 46.7422 66.2559 44.8156 66.167 44.8316C65.8637 44.8886 65.3348 45.2511 65.011 45.4518C64.6097 42.9574 64.6097 40.4198 64.1742 37.9415C64.1742 37.9215 64.1663 37.9024 64.1522 37.8882C64.1381 37.8741 64.119 37.8662 64.099 37.8662C64.0791 37.8662 64.0599 37.8741 64.0458 37.8882C64.0317 37.9024 64.0238 37.9215 64.0238 37.9415C63.8368 40.6022 64.2358 43.4818 64.5824 46.0696C64.6234 46.3911 65.6289 45.6729 65.8204 45.5202Z" fill="#263238"/>
<path d="M66.7801 46.8334C67.1296 47.1543 67.556 47.3797 68.0181 47.4877C68.2713 47.5397 68.5345 47.511 68.7705 47.4057C69.2835 47.1777 69.2128 46.6738 69.0396 46.2657C68.9458 46.0504 68.8272 45.8469 68.6862 45.6592C68.1922 46.2437 67.5243 46.6551 66.7801 46.8334Z" fill="#263238"/>
<path d="M68.0181 47.4877C68.2713 47.5397 68.5345 47.511 68.7705 47.4056C69.2835 47.1776 69.2128 46.6737 69.0396 46.2656C68.4718 46.4275 67.968 46.9177 68.0181 47.4877Z" fill="#FF97B8"/>
<path d="M80.0091 40.5839C78.2193 41.3272 76.4842 36.2519 76.4842 36.2519C76.4842 36.2519 72.4235 36.2906 69.6738 31.8834C69.6738 31.8834 70.5722 34.3526 72.7769 35.7776C72.7769 35.7776 65.9734 37.2323 61.4043 32.6358C61.4043 32.6358 63.4244 35.0777 64.7878 35.7366C64.7878 35.7366 61.7782 35.8688 59.6988 34.0699C59.6988 34.0699 59.5871 37.6244 58.9898 38.7918C58.9898 38.7918 55.7202 26.8651 66.7805 24.5988C66.7805 24.5988 73.4906 22.695 77.6173 27.1934C81.7441 31.6919 80.0091 40.5839 80.0091 40.5839Z" fill="#263238"/>
<path d="M78.097 40.3559C78.097 40.3559 79.5835 36.1174 81.428 36.5597C83.2726 37.002 82.8417 42.6655 81.1567 43.8922C79.4718 45.1188 78.309 43.5684 78.309 43.5684L78.097 40.3559Z" fill="#AD6359"/>
<path d="M81.2654 38.1738C81.2951 38.1624 81.3133 38.2035 81.2905 38.2217C80.1209 39.1337 79.7652 40.5473 79.633 41.9586C79.8883 41.359 80.3489 40.9418 81.1309 41.229C81.172 41.245 81.1537 41.3088 81.115 41.3111C80.8624 41.3008 80.6129 41.3697 80.4015 41.5084C80.1901 41.647 80.0274 41.8483 79.9362 42.084C79.7833 42.4793 79.6732 42.8897 79.6079 43.3084C79.5782 43.4452 79.348 43.4407 79.3548 43.2925C79.3548 43.2925 79.3548 43.2696 79.3548 43.2582C78.8555 41.5756 79.5076 38.8442 81.2654 38.1738Z" fill="#263238"/>
<path d="M79.8421 45.707C79.9197 46.2599 80.0804 46.798 80.3187 47.303C80.663 47.987 81.0483 48.0668 81.3105 48.0235C81.4157 48.0071 81.5159 47.9675 81.6038 47.9076C81.6918 47.8476 81.7653 47.7688 81.8189 47.6769C82.3775 46.79 81.6958 44.0677 81.5385 43.5136C81.4362 43.6617 81.307 43.7893 81.1577 43.8898C81.4017 44.8018 81.8007 46.8401 81.4359 47.4329C81.4148 47.4693 81.3859 47.5005 81.3511 47.5242C81.3164 47.5479 81.2768 47.5634 81.2352 47.5697C81.0072 47.6062 80.7359 47.2414 80.5307 46.6144C80.3052 45.9108 80.1928 45.1759 80.1978 44.437C80.1978 43.9058 80.2685 43.525 80.3802 43.4635C80.4101 43.4588 80.4388 43.4482 80.4646 43.4323C80.4903 43.4164 80.5127 43.3955 80.5303 43.3709C80.5479 43.3463 80.5604 43.3184 80.5672 43.2889C80.5739 43.2594 80.5747 43.2288 80.5695 43.199C80.5648 43.1691 80.5542 43.1404 80.5383 43.1146C80.5224 43.0889 80.5015 43.0665 80.4769 43.0489C80.4523 43.0313 80.4244 43.0188 80.3949 43.012C80.3654 43.0053 80.3348 43.0045 80.305 43.0097C79.8809 43.0804 79.7464 43.728 79.7441 44.4393C79.7389 44.8639 79.7717 45.2882 79.8421 45.707Z" fill="#DD0B0E"/>
<path d="M37.6388 104.408C24.096 104.408 13.1174 102.713 13.1174 100.621C13.1174 98.5295 24.096 96.834 37.6388 96.834C51.1815 96.834 62.1602 98.5295 62.1602 100.621C62.1602 102.713 51.1815 104.408 37.6388 104.408Z" fill="#DBDBDB"/>
<path d="M37.6387 102.595C29.1743 102.595 22.3125 101.57 22.3125 100.306C22.3125 99.042 29.1743 98.0171 37.6387 98.0171C46.1031 98.0171 52.9648 99.042 52.9648 100.306C52.9648 101.57 46.1031 102.595 37.6387 102.595Z" fill="#C7C7C7"/>
<path d="M29.746 89.2623C27.8331 89.8505 27.7784 91.5696 28.0338 92.3996C28.2891 93.2295 29.1282 94.6271 31.2007 93.9956C32.8286 93.494 33.0976 91.9641 32.7967 90.9837C32.3931 89.6727 30.9886 88.8815 29.746 89.2623Z" fill="#DD0B0E"/>
<path opacity="0.3" d="M29.746 89.2623C27.8331 89.8505 27.7784 91.5696 28.0338 92.3996C28.2891 93.2295 29.1282 94.6271 31.2007 93.9956C32.8286 93.494 33.0976 91.9641 32.7967 90.9837C32.3931 89.6727 30.9886 88.8815 29.746 89.2623Z" fill="black"/>
<path opacity="0.1" d="M28.2724 92.9764C28.6896 93.7288 29.5583 94.4926 31.1931 93.991C32.8278 93.4894 33.0923 91.9595 32.7891 90.9768C32.6364 90.4841 32.3391 90.0486 31.9358 89.7269C31.5324 89.4053 31.0417 89.2124 30.5273 89.1733C30.9222 89.2758 31.2845 89.4772 31.5801 89.7584C31.8757 90.0396 32.0948 90.3914 32.2168 90.7807C32.4972 91.6928 32.2487 93.1018 30.7416 93.5669C29.4899 93.9522 28.7284 93.5304 28.2724 92.9764Z" fill="black"/>
<g opacity="0.2">
<path opacity="0.2" d="M31.8906 92.5383C31.3936 92.9578 30.6731 93.2839 30.1054 92.8393L30.0301 92.7891L29.964 92.8461C29.6061 93.1562 29.0178 93.3021 28.6849 92.878C28.574 92.7428 28.4792 92.5951 28.4022 92.438C28.4397 92.6155 28.5043 92.7862 28.5937 92.9441C28.9198 93.5233 29.6767 93.4001 30.1122 93.0171H29.9709C30.6024 93.521 31.4848 93.1402 31.8906 92.5338V92.5383Z" fill="black"/>
<path opacity="0.2" d="M30.4129 91.843C31.0354 92.3195 31.9656 91.941 32.2369 91.2274C32.2725 91.1318 32.3029 91.0344 32.3281 90.9355C32.2574 91.0131 32.2004 91.0929 32.1412 91.1635C31.955 91.4362 31.6908 91.6462 31.3833 91.7663C31.0757 91.8863 30.7391 91.9106 30.4175 91.8361L30.4129 91.843Z" fill="black"/>
<path opacity="0.2" d="M29.0235 90.7965C29.3609 91.4098 30.2729 91.2525 30.5625 90.6665C30.07 90.9515 29.5661 91.1065 29.0235 90.7965Z" fill="black"/>
</g>
<path d="M40.1921 86.6401C38.229 87.0231 37.9896 88.724 38.156 89.5767C38.3225 90.4295 39.0065 91.9092 41.1337 91.4965C42.8072 91.1705 43.2381 89.6725 43.0421 88.6716C42.7821 87.3355 41.4689 86.3984 40.1921 86.6401Z" fill="#DD0B0E"/>
<path opacity="0.3" d="M40.1921 86.6401C38.229 87.0231 37.9896 88.724 38.156 89.5767C38.3225 90.4295 39.0065 91.9092 41.1337 91.4965C42.8072 91.1705 43.2381 89.6725 43.0421 88.6716C42.7821 87.3355 41.4689 86.3984 40.1921 86.6401Z" fill="black"/>
<path opacity="0.1" d="M38.3389 90.181C38.6718 90.9744 39.4561 91.8249 41.1342 91.5011C42.8123 91.1773 43.2363 89.6771 43.0425 88.6739C42.9429 88.1686 42.6942 87.7048 42.3284 87.3423C41.9627 86.9798 41.4967 86.7352 40.9906 86.6401C41.3726 86.7841 41.7118 87.0228 41.9763 87.3339C42.2407 87.645 42.4217 88.0182 42.5022 88.4185C42.6823 89.3511 42.2742 90.7305 40.7375 91.0314C39.4447 91.2822 38.722 90.7783 38.3389 90.181Z" fill="black"/>
<g opacity="0.2">
<path opacity="0.2" d="M41.9779 90.1306C41.4398 90.4954 40.6874 90.744 40.1721 90.2401L40.1014 90.1831L40.0285 90.231C39.6386 90.5023 39.0367 90.5958 38.7539 90.1261C38.6591 89.9802 38.5826 89.8232 38.5259 89.6587C38.5432 89.8394 38.5886 90.0164 38.6605 90.1831C38.9227 90.7918 39.6887 90.7531 40.163 90.4111L40.0216 90.3997C40.5962 90.9674 41.5127 90.6847 41.9824 90.1238L41.9779 90.1306Z" fill="black"/>
<path opacity="0.2" d="M40.5851 89.2802C41.1642 89.8228 42.1104 89.547 42.4592 88.863C42.5061 88.7724 42.5464 88.6787 42.5801 88.5825C42.5048 88.6532 42.4387 88.7262 42.3703 88.7968C42.1565 89.0485 41.8715 89.2294 41.5528 89.3157C41.234 89.402 40.8966 89.3896 40.5851 89.2802Z" fill="black"/>
<path opacity="0.2" d="M39.3119 88.0923C39.5832 88.7375 40.5066 88.6896 40.8555 88.1265C40.3379 88.3545 39.8204 88.4594 39.3119 88.0923Z" fill="black"/>
</g>
<path d="M54.707 99.2574C54.707 99.2574 54.454 96.7904 52.4977 96.038C52.4977 96.038 51.9961 92.0002 46.8274 90.338C46.8274 90.338 45.3773 88.3225 42.9149 87.9076C38.6536 87.1894 33.8131 90.9286 33.8131 90.9286C30.8354 90.3152 26.7451 90.411 24.2782 92.3239C23.802 92.6887 23.4097 93.1515 23.1277 93.6809C22.8457 94.2103 22.6805 94.7941 22.6434 95.3928C21.8855 95.7317 21.2735 96.33 20.9174 97.08C20.2562 98.4617 20.7419 100.609 20.7419 100.609C20.7419 100.609 28.8974 102.714 37.4224 102.675C44.634 102.65 50.7125 101.834 54.707 99.2574Z" fill="#DD0B0E"/>
<g opacity="0.2">
<path opacity="0.2" d="M32.9424 98.2909C33.5261 98.2909 34.1258 98.2749 34.7345 98.2361C34.7571 98.2344 34.7781 98.2239 34.793 98.2068C34.8079 98.1898 34.8156 98.1676 34.8143 98.1449C34.8137 98.1337 34.8109 98.1226 34.806 98.1124C34.8011 98.1023 34.7941 98.0932 34.7856 98.0857C34.7771 98.0783 34.7672 98.0726 34.7565 98.0691C34.7457 98.0656 34.7344 98.0642 34.7231 98.0651C28.7951 98.4299 23.8772 96.9388 22.7121 95.3497C22.6978 95.333 22.6778 95.3224 22.6561 95.3199C22.6343 95.3174 22.6124 95.3233 22.5948 95.3363C22.5772 95.3493 22.5651 95.3684 22.5611 95.39C22.5571 95.4115 22.5613 95.4337 22.573 95.4523C23.6446 96.9115 27.7782 98.2909 32.9424 98.2909Z" fill="black"/>
<path opacity="0.2" d="M47.8186 101.369C48.9831 101.371 50.1441 101.242 51.2796 100.983C51.302 100.978 51.3215 100.965 51.3338 100.946C51.3462 100.926 51.3505 100.903 51.3458 100.881C51.3403 100.859 51.3266 100.84 51.3074 100.828C51.2883 100.816 51.2652 100.812 51.2432 100.817C45.8646 102.044 40.7848 100.09 36.0401 97.9828C34.8637 97.4607 33.6689 96.8428 32.513 96.2477C29.4692 94.6814 26.8426 93.3293 25.7892 94.2892C25.6693 94.3767 25.5802 94.5 25.5348 94.6414C25.4893 94.7827 25.4898 94.9348 25.5362 95.0758C25.8394 95.9696 28.0214 96.7083 29.3917 96.8223C29.4028 96.8236 29.4141 96.8225 29.4248 96.8193C29.4355 96.816 29.4455 96.8105 29.454 96.8033C29.4626 96.796 29.4695 96.7871 29.4745 96.777C29.4795 96.767 29.4823 96.756 29.4828 96.7448C29.4841 96.7335 29.4831 96.7221 29.4798 96.7113C29.4766 96.7004 29.4712 96.6903 29.4639 96.6816C29.4567 96.6729 29.4478 96.6657 29.4377 96.6605C29.4276 96.6553 29.4166 96.6522 29.4053 96.6513C27.9347 96.5282 25.9534 95.7735 25.698 95.0211C25.6657 94.912 25.6683 94.7955 25.7055 94.688C25.7427 94.5804 25.8127 94.4872 25.9055 94.4215C26.8722 93.5414 29.5763 94.9345 32.4355 96.4073C33.5937 97.0024 34.793 97.6203 35.974 98.1447C39.7132 99.8 43.6667 101.369 47.8186 101.369Z" fill="black"/>
<path opacity="0.2" d="M48.9047 99.9918C50.5743 99.9741 52.2388 99.8039 53.8774 99.4833C54.1807 99.4309 54.4634 99.3807 54.721 99.342C54.7322 99.3403 54.7429 99.3364 54.7525 99.3306C54.7621 99.3247 54.7705 99.317 54.777 99.3078C54.7836 99.2987 54.7883 99.2883 54.7908 99.2774C54.7934 99.2664 54.7936 99.255 54.7917 99.2439C54.7903 99.2328 54.7867 99.2221 54.7811 99.2124C54.7755 99.2026 54.768 99.1941 54.7591 99.1873C54.7502 99.1806 54.74 99.1756 54.7292 99.1728C54.7183 99.17 54.707 99.1693 54.6959 99.171C54.436 99.212 54.1533 99.2622 53.8478 99.3146C51.6316 99.7022 48.2846 100.286 43.5376 99.1846C40.7355 98.5348 37.7966 96.9685 34.9534 95.4523C30.2635 92.9443 26.2142 90.7965 24.1371 93.4664C23.9535 93.6946 23.8338 93.9674 23.7902 94.257C23.7465 94.5466 23.7805 94.8426 23.8886 95.1148C24.169 95.8718 25.2247 97.2603 29.1098 98.0355C29.131 98.0373 29.1521 98.0313 29.1691 98.0186C29.1861 98.0058 29.1979 97.9872 29.2021 97.9664C29.2063 97.9456 29.2027 97.9239 29.192 97.9055C29.1813 97.8871 29.1642 97.8734 29.144 97.8668C26.3647 97.3128 24.5065 96.289 24.0482 95.0556C23.9515 94.8101 23.9216 94.5434 23.9617 94.2826C24.0017 94.0219 24.1103 93.7764 24.2762 93.5713C26.2643 91.0131 30.2566 93.1404 34.8782 95.605C37.7305 97.1235 40.6785 98.6967 43.5034 99.3511C45.2734 99.7704 47.0857 99.9854 48.9047 99.9918Z" fill="black"/>
<path opacity="0.2" d="M32.403 97.0047C32.7677 97.0153 33.1324 96.9855 33.4906 96.9158C33.5013 96.9132 33.5115 96.9084 33.5205 96.9018C33.5294 96.8952 33.5369 96.8869 33.5427 96.8773C33.5484 96.8678 33.5522 96.8572 33.5538 96.8462C33.5554 96.8352 33.5548 96.824 33.5521 96.8132C33.5462 96.7912 33.5319 96.7725 33.5123 96.7609C33.4927 96.7494 33.4693 96.7461 33.4472 96.7517C32.9593 96.8748 31.7669 96.8497 30.9598 96.7517C30.9487 96.7503 30.9374 96.7512 30.9267 96.7541C30.9159 96.7571 30.9059 96.7622 30.8971 96.7691C30.8883 96.776 30.881 96.7845 30.8755 96.7943C30.87 96.804 30.8665 96.8147 30.8651 96.8258C30.8638 96.8368 30.8646 96.8481 30.8676 96.8588C30.8706 96.8696 30.8757 96.8796 30.8826 96.8884C30.8895 96.8972 30.898 96.9046 30.9077 96.91C30.9174 96.9155 30.9282 96.919 30.9392 96.9204C31.425 96.9776 31.9138 97.0057 32.403 97.0047Z" fill="black"/>
<path opacity="0.2" d="M37.1213 101.152C39.2467 101.163 41.371 101.058 43.4848 100.835C43.4959 100.834 43.5066 100.83 43.5163 100.825C43.526 100.819 43.5345 100.812 43.5413 100.803C43.5481 100.794 43.5531 100.784 43.5559 100.773C43.5587 100.762 43.5593 100.751 43.5577 100.74C43.5569 100.728 43.5538 100.718 43.5486 100.708C43.5433 100.698 43.536 100.689 43.5272 100.682C43.5184 100.675 43.5083 100.67 43.4974 100.668C43.4866 100.665 43.4753 100.665 43.4642 100.667C43.3366 100.683 30.7419 102.199 20.6141 98.4413C20.6032 98.436 20.5913 98.4331 20.5792 98.4327C20.5671 98.4323 20.555 98.4344 20.5438 98.4389C20.5326 98.4435 20.5224 98.4503 20.514 98.459C20.5056 98.4677 20.499 98.4781 20.4949 98.4895C20.4907 98.5008 20.489 98.513 20.4898 98.5251C20.4906 98.5371 20.4939 98.5489 20.4996 98.5597C20.5052 98.5704 20.5131 98.5798 20.5226 98.5873C20.5321 98.5948 20.5431 98.6002 20.5548 98.6032C26.1636 100.683 32.5248 101.152 37.1213 101.152Z" fill="black"/>
<path opacity="0.2" d="M35.2639 99.5517C36.4426 99.5517 37.6921 99.5106 39.0099 99.4149C39.0325 99.4131 39.0535 99.4026 39.0684 99.3855C39.0833 99.3685 39.091 99.3463 39.0897 99.3237C39.0891 99.3124 39.0863 99.3013 39.0814 99.2912C39.0764 99.281 39.0695 99.2719 39.061 99.2645C39.0525 99.257 39.0426 99.2514 39.0318 99.2478C39.0211 99.2443 39.0098 99.2429 38.9985 99.2439C27.4024 100.087 21.1575 96.7929 21.096 96.7587C21.076 96.748 21.0526 96.7457 21.0309 96.7521C21.0091 96.7584 20.9908 96.7731 20.9797 96.7929C20.9691 96.8129 20.9667 96.8362 20.9731 96.858C20.9795 96.8797 20.9941 96.8981 21.0139 96.9092C21.0686 96.9388 26.0208 99.5517 35.2639 99.5517Z" fill="black"/>
<path opacity="0.2" d="M38.3283 97.3057C39.5184 97.3057 40.6949 96.8862 40.9982 96.3367C41.053 96.242 41.0791 96.1335 41.0735 96.0242C41.0678 95.9149 41.0305 95.8096 40.9662 95.7211C40.3848 94.857 38.6566 95.3267 37.2681 95.7029C36.8385 95.8372 36.3984 95.9356 35.9525 95.997C35.9411 95.9976 35.93 96.0004 35.9197 96.0053C35.9094 96.0102 35.9002 96.0171 35.8925 96.0256C35.8849 96.034 35.879 96.0439 35.8752 96.0547C35.8714 96.0654 35.8698 96.0768 35.8704 96.0882C35.871 96.0995 35.8738 96.1106 35.8788 96.1207C35.8837 96.1309 35.8906 96.14 35.8991 96.1474C35.9076 96.1549 35.9175 96.1605 35.9283 96.1641C35.939 96.1676 35.9504 96.1689 35.9616 96.168C36.42 96.1072 36.8723 96.0073 37.3137 95.8693C38.5791 95.5251 40.3119 95.0554 40.8226 95.8169C40.8708 95.8787 40.899 95.9536 40.9035 96.0319C40.908 96.1101 40.8885 96.1878 40.8477 96.2547C40.5627 96.7677 39.3474 97.1666 38.1732 97.1324C38.1608 97.1304 38.1481 97.1311 38.136 97.1345C38.1239 97.1378 38.1127 97.1438 38.1031 97.1519C38.0936 97.16 38.0859 97.1702 38.0806 97.1816C38.0753 97.193 38.0726 97.2054 38.0726 97.2179C38.0726 97.2305 38.0753 97.2429 38.0806 97.2543C38.0859 97.2657 38.0936 97.2758 38.1031 97.284C38.1127 97.2921 38.1239 97.2981 38.136 97.3014C38.1481 97.3048 38.1608 97.3055 38.1732 97.3034L38.3283 97.3057Z" fill="black"/>
<path opacity="0.2" d="M40.3356 98.293H40.3607C41.9339 97.796 42.8504 96.9022 42.8071 95.9013C42.7752 95.0873 42.0958 94.3897 41.1199 94.1685C39.5718 93.8197 37.1071 94.4353 35.4769 94.8411C34.9867 94.9642 34.5649 95.0691 34.2799 95.1193C34.2687 95.1212 34.258 95.1253 34.2483 95.1314C34.2387 95.1375 34.2303 95.1454 34.2238 95.1547C34.2172 95.1641 34.2125 95.1746 34.21 95.1857C34.2076 95.1968 34.2073 95.2084 34.2093 95.2196C34.2137 95.2419 34.2267 95.2615 34.2454 95.2743C34.2642 95.2871 34.2872 95.292 34.3096 95.288C34.5991 95.2378 35.0255 95.1307 35.518 95.0075C37.1322 94.604 39.5741 93.9929 41.0834 94.3372C41.9818 94.5401 42.6065 95.1717 42.6384 95.9081C42.6749 96.8201 41.8062 97.6592 40.3082 98.1311C40.2976 98.1345 40.2877 98.14 40.2791 98.1472C40.2705 98.1544 40.2635 98.1633 40.2584 98.1732C40.2533 98.1832 40.2503 98.1941 40.2494 98.2053C40.2486 98.2165 40.25 98.2277 40.2535 98.2383C40.26 98.2547 40.2714 98.2687 40.286 98.2785C40.3007 98.2883 40.318 98.2933 40.3356 98.293Z" fill="black"/>
<path opacity="0.2" d="M36.107 94.8479C36.1251 94.8475 36.1427 94.8413 36.1572 94.8303C36.1717 94.8192 36.1824 94.8039 36.1877 94.7865C36.193 94.7691 36.1926 94.7505 36.1867 94.7333C36.1809 94.716 36.1697 94.7011 36.1548 94.6906C31.9232 91.8862 28.6969 90.6664 26.5606 91.0699C26.5407 91.0766 26.5239 91.0902 26.5133 91.1083C26.5026 91.1263 26.4989 91.1476 26.5028 91.1682C26.5067 91.1888 26.518 91.2073 26.5345 91.2203C26.5509 91.2332 26.5716 91.2398 26.5925 91.2387C28.681 90.8465 31.8662 92.0549 36.0614 94.8342C36.0749 94.8432 36.0907 94.848 36.107 94.8479Z" fill="black"/>
<path opacity="0.2" d="M49.5187 98.6671C51.1318 98.664 52.7427 98.5444 54.3386 98.3091L54.4594 98.2931C54.4808 98.2884 54.4996 98.2758 54.512 98.2577C54.5245 98.2397 54.5296 98.2176 54.5264 98.196C54.5232 98.1743 54.512 98.1546 54.4949 98.1409C54.4778 98.1272 54.4562 98.1205 54.4343 98.1221L54.3135 98.1404C48.6614 98.9635 44.4023 98.2042 41.8237 97.4244C41.8019 97.418 41.7785 97.4204 41.7584 97.431C41.7384 97.4417 41.7233 97.4598 41.7165 97.4814C41.713 97.4921 41.7118 97.5033 41.7128 97.5144C41.7138 97.5256 41.7171 97.5364 41.7224 97.5462C41.7277 97.556 41.735 97.5646 41.7438 97.5715C41.7526 97.5784 41.7627 97.5835 41.7735 97.5863C44.2882 98.3247 46.8979 98.6889 49.5187 98.6671Z" fill="black"/>
<path opacity="0.2" d="M49.6853 97.5314C51.7122 97.5314 53.2512 97.2783 53.7893 97.0412C53.7995 97.0367 53.8087 97.0303 53.8164 97.0222C53.8241 97.0142 53.8301 97.0047 53.8341 96.9943C53.8381 96.984 53.8401 96.9729 53.8398 96.9618C53.8396 96.9507 53.8371 96.9397 53.8326 96.9295C53.8281 96.9193 53.8217 96.9101 53.8136 96.9024C53.8056 96.8948 53.7961 96.8887 53.7857 96.8847C53.7754 96.8807 53.7643 96.8788 53.7532 96.879C53.7421 96.8793 53.7311 96.8817 53.7209 96.8862C52.5627 97.3901 47.4076 97.8096 42.6766 96.3322C42.6549 96.3257 42.6314 96.3281 42.6114 96.3388C42.5914 96.3494 42.5763 96.3675 42.5695 96.3892C42.563 96.4109 42.5654 96.4343 42.5761 96.4544C42.5867 96.4744 42.6048 96.4895 42.6265 96.4963C44.9153 97.1887 47.2941 97.5375 49.6853 97.5314Z" fill="black"/>
<path opacity="0.2" d="M49.2861 96.3551C50.3659 96.3655 51.4447 96.2893 52.5123 96.1271C52.5344 96.1232 52.554 96.1107 52.5668 96.0923C52.5797 96.0739 52.5847 96.0512 52.5807 96.0291C52.5768 96.007 52.5643 95.9874 52.5459 95.9746C52.5275 95.9618 52.5048 95.9568 52.4827 95.9607C52.4325 95.9607 47.4667 96.8453 42.5373 95.1171C42.5267 95.1132 42.5154 95.1114 42.5041 95.1119C42.4928 95.1124 42.4817 95.1152 42.4715 95.1201C42.4613 95.125 42.4521 95.1319 42.4447 95.1404C42.4372 95.1489 42.4315 95.1588 42.4279 95.1695C42.424 95.18 42.4222 95.1911 42.4228 95.2023C42.4233 95.2135 42.4261 95.2244 42.431 95.2344C42.4359 95.2445 42.4428 95.2534 42.4513 95.2606C42.4598 95.2679 42.4697 95.2734 42.4803 95.2767C44.6732 96.0121 46.9733 96.3766 49.2861 96.3551Z" fill="black"/>
<path opacity="0.2" d="M44.0276 95.7347H44.0459C44.6932 95.5832 45.2978 95.287 45.8143 94.8685C46.3308 94.4499 46.7458 93.9198 47.0281 93.3179C47.2529 92.8437 47.3589 92.322 47.337 91.7977C47.3152 91.2733 47.1661 90.7622 46.9027 90.3083C46.8975 90.2983 46.8903 90.2895 46.8815 90.2823C46.8728 90.2751 46.8627 90.2698 46.8518 90.2666C46.841 90.2634 46.8296 90.2624 46.8184 90.2637C46.8071 90.265 46.7963 90.2686 46.7864 90.2741C46.7764 90.2794 46.7676 90.2866 46.7604 90.2954C46.7532 90.3041 46.7479 90.3142 46.7447 90.325C46.7415 90.3359 46.7405 90.3473 46.7418 90.3585C46.7431 90.3697 46.7467 90.3806 46.7522 90.3904C47.0026 90.8211 47.1444 91.3062 47.1654 91.8039C47.1865 92.3016 47.0861 92.797 46.8731 93.2473C46.5976 93.8228 46.1972 94.3296 45.701 94.7307C45.2048 95.1319 44.6253 95.4172 44.0048 95.566C43.983 95.5709 43.9639 95.5841 43.9516 95.6028C43.9392 95.6215 43.9346 95.6443 43.9387 95.6663C43.943 95.6864 43.9543 95.7043 43.9706 95.7169C43.9869 95.7294 44.0071 95.7357 44.0276 95.7347Z" fill="black"/>
<path opacity="0.2" d="M42.508 95.2789H42.5354C42.6767 95.231 46.0215 94.0955 46.0215 92.0048C46.0216 91.6261 45.9383 91.2521 45.7775 90.9093C45.6167 90.5664 45.3824 90.2632 45.0912 90.0212C44.1405 89.189 42.6402 88.8424 40.9872 89.0659C38.2079 89.4375 35.456 91.3846 35.4286 91.4051C35.4194 91.4115 35.4115 91.4196 35.4055 91.4291C35.3995 91.4385 35.3954 91.4491 35.3935 91.4601C35.3916 91.4711 35.3919 91.4825 35.3944 91.4934C35.3969 91.5043 35.4015 91.5146 35.4081 91.5237C35.4147 91.533 35.423 91.5409 35.4326 91.5469C35.4423 91.553 35.453 91.5571 35.4642 91.559C35.4755 91.5609 35.487 91.5606 35.498 91.558C35.5091 91.5555 35.5196 91.5508 35.5289 91.5442C35.554 91.5237 38.2649 89.6017 41.0009 89.2346C42.5969 89.0203 44.0789 89.3623 44.9772 90.1466C45.2499 90.3731 45.4694 90.6567 45.6203 90.9774C45.7712 91.2981 45.8498 91.6481 45.8505 92.0025C45.8505 93.9701 42.5148 95.1033 42.4806 95.1147C42.4626 95.1222 42.4476 95.1356 42.4382 95.1526C42.4287 95.1697 42.4252 95.1895 42.4284 95.2088C42.4316 95.228 42.4412 95.2457 42.4556 95.2588C42.4701 95.2719 42.4885 95.2798 42.508 95.2811V95.2789Z" fill="black"/>
<path opacity="0.2" d="M37.6397 94.5126C37.6529 94.5125 37.666 94.5094 37.6778 94.5035C37.6897 94.4976 37.7 94.489 37.7081 94.4784C37.7212 94.4604 37.7268 94.438 37.7238 94.416C37.7209 94.3939 37.7095 94.3738 37.6921 94.3599C34.2151 91.7014 31.4198 90.5044 28.8913 90.5978C28.8687 90.599 28.8475 90.609 28.8322 90.6256C28.8168 90.6422 28.8086 90.6642 28.8092 90.6868C28.8088 90.6983 28.8109 90.7097 28.8153 90.7203C28.8198 90.7309 28.8264 90.7404 28.8349 90.7482C28.8433 90.756 28.8533 90.7619 28.8643 90.7654C28.8752 90.769 28.8867 90.7702 28.8982 90.7688C31.3856 90.6731 34.1422 91.8633 37.5872 94.4944C37.6024 94.5058 37.6207 94.5121 37.6397 94.5126Z" fill="black"/>
<path opacity="0.2" d="M39.283 94.2688C39.2946 94.2689 39.3061 94.2665 39.3167 94.2618C39.3274 94.257 39.3369 94.2501 39.3446 94.2415C39.3603 94.2253 39.3691 94.2036 39.3691 94.181C39.3691 94.1585 39.3603 94.1368 39.3446 94.1206C38.5329 93.3386 35.5963 91.0153 33.8224 90.8511C33.8112 90.8498 33.7998 90.8509 33.7889 90.8541C33.778 90.8574 33.7679 90.8628 33.7592 90.87C33.7505 90.8772 33.7433 90.8862 33.7381 90.8962C33.7329 90.9063 33.7298 90.9173 33.7289 90.9286C33.727 90.9513 33.7341 90.9737 33.7486 90.9912C33.7631 91.0087 33.7839 91.0198 33.8065 91.0221C35.5347 91.1817 38.4235 93.4731 39.226 94.2437C39.2413 94.2589 39.2616 94.2678 39.283 94.2688Z" fill="black"/>
<path opacity="0.2" d="M41.7256 94.5607H41.7529C43.2988 94.0728 44.3498 93.2907 44.6348 92.4152C44.7123 92.1942 44.7353 91.9578 44.702 91.726C44.6686 91.4942 44.5799 91.2739 44.4433 91.0837C44.1424 90.6755 43.431 90.1967 41.7985 90.2195C41.7759 90.2201 41.7545 90.2295 41.7387 90.2457C41.723 90.2619 41.7141 90.2836 41.7142 90.3062C41.7147 90.3287 41.7241 90.3502 41.7403 90.366C41.7565 90.3817 41.7782 90.3905 41.8008 90.3905C43.3649 90.3632 44.0284 90.8101 44.3088 91.184C44.4288 91.3529 44.5063 91.5481 44.5349 91.7533C44.5634 91.9585 44.5422 92.1675 44.473 92.3627C44.2062 93.1858 43.1962 93.9268 41.7028 94.3965C41.6835 94.403 41.6671 94.4161 41.6565 94.4334C41.6459 94.4507 41.6417 94.4713 41.6447 94.4914C41.6477 94.5115 41.6576 94.5299 41.6728 94.5434C41.688 94.5569 41.7075 94.5646 41.7278 94.5652L41.7256 94.5607Z" fill="black"/>
<path opacity="0.2" d="M36.6082 92.2215C36.6255 92.2218 36.6424 92.2162 36.656 92.2055C36.6766 92.1941 38.569 90.8603 40.7601 90.4864C40.7713 90.4845 40.782 90.4803 40.7917 90.4742C40.8013 90.4682 40.8097 90.4602 40.8162 90.4509C40.8228 90.4416 40.8274 90.4311 40.8299 90.4199C40.8324 90.4088 40.8327 90.3973 40.8307 90.3861C40.8268 90.3638 40.8144 90.344 40.7961 90.3308C40.7778 90.3176 40.755 90.3121 40.7327 90.3154C38.4914 90.6984 36.5671 92.0528 36.5489 92.0664C36.5396 92.073 36.5317 92.0814 36.5256 92.091C36.5196 92.1006 36.5155 92.1114 36.5136 92.1226C36.5117 92.1338 36.512 92.1453 36.5145 92.1564C36.5171 92.1675 36.5218 92.178 36.5284 92.1873C36.5373 92.1997 36.5495 92.2094 36.5635 92.2154C36.5776 92.2215 36.593 92.2235 36.6082 92.2215Z" fill="black"/>
<path opacity="0.2" d="M39.716 94.2349H39.7342C41.7475 93.7789 42.7552 93.0515 43.0265 92.5294C43.0718 92.454 43.0998 92.3695 43.1084 92.282C43.1171 92.1944 43.1063 92.1061 43.0767 92.0233C42.892 91.5673 42.2833 91.1341 40.4296 91.6197C39.4371 91.9208 38.4847 92.3411 37.5933 92.8714C37.574 92.8832 37.5601 92.9022 37.5548 92.9242C37.5494 92.9462 37.553 92.9695 37.5648 92.9888C37.5766 93.0082 37.5956 93.0221 37.6176 93.0274C37.6396 93.0328 37.6629 93.0291 37.6822 93.0173C38.5597 92.4958 39.4966 92.0817 40.473 91.7839C41.8273 91.4305 42.6959 91.5376 42.9194 92.0871C42.9391 92.147 42.9455 92.2105 42.938 92.2732C42.9305 92.3358 42.9094 92.396 42.8761 92.4496C42.6321 92.9056 41.654 93.6193 39.6955 94.0684C39.6731 94.0711 39.6527 94.0826 39.6388 94.1004C39.6249 94.1181 39.6187 94.1407 39.6214 94.163C39.6241 94.1854 39.6356 94.2058 39.6533 94.2197C39.6711 94.2336 39.6936 94.2399 39.716 94.2371V94.2349Z" fill="black"/>
<path opacity="0.2" d="M45.6923 96.0791C45.705 96.0824 45.7183 96.0824 45.731 96.0791C48.7361 94.5492 48.2664 92.1552 48.2618 92.1301C48.2564 92.1081 48.2427 92.089 48.2237 92.0767C48.2046 92.0644 48.1815 92.0599 48.1592 92.064C48.1369 92.0689 48.1174 92.0825 48.105 92.1017C48.0926 92.1209 48.0884 92.1442 48.0931 92.1666C48.1136 92.2578 48.5377 94.4603 45.6535 95.9286C45.6436 95.9337 45.6348 95.9406 45.6276 95.9491C45.6204 95.9576 45.6149 95.9674 45.6115 95.978C45.6081 95.9886 45.6069 95.9998 45.6078 96.0109C45.6088 96.0219 45.6119 96.0327 45.617 96.0426C45.6251 96.0549 45.6364 96.0647 45.6496 96.0711C45.6629 96.0776 45.6776 96.0803 45.6923 96.0791Z" fill="black"/>
<path opacity="0.2" d="M47.0649 96.2546C47.0822 96.255 47.0991 96.2493 47.1127 96.2387C49.94 94.287 49.2742 91.6536 49.0348 91.25C49.0233 91.2307 49.0046 91.2167 48.9828 91.2111C48.961 91.2056 48.9379 91.2089 48.9185 91.2204C48.8991 91.2319 48.8852 91.2506 48.8796 91.2724C48.874 91.2942 48.8774 91.3173 48.8889 91.3367C49.1169 91.7197 49.7347 94.2209 47.017 96.0996C47.0076 96.1058 46.9995 96.1138 46.9933 96.1232C46.987 96.1325 46.9827 96.143 46.9806 96.1541C46.9785 96.1651 46.9786 96.1765 46.9809 96.1875C46.9832 96.1985 46.9877 96.2089 46.9942 96.2182C47.0022 96.2294 47.0128 96.2386 47.0251 96.245C47.0374 96.2513 47.051 96.2546 47.0649 96.2546Z" fill="black"/>
<path opacity="0.2" d="M51.3535 96.2614C51.3648 96.2608 51.3759 96.258 51.386 96.253C51.3962 96.2481 51.4053 96.2412 51.4127 96.2327C51.4202 96.2242 51.4258 96.2143 51.4294 96.2035C51.4329 96.1928 51.4342 96.1814 51.4333 96.1702C51.2714 94.0315 49.2605 92.6499 49.2422 92.6362C49.233 92.6298 49.2226 92.6253 49.2115 92.6229C49.2005 92.6206 49.1892 92.6205 49.1781 92.6226C49.1671 92.6247 49.1566 92.629 49.1472 92.6353C49.1379 92.6415 49.1299 92.6496 49.1237 92.659C49.1169 92.6681 49.1121 92.6785 49.1096 92.6896C49.1071 92.7007 49.1069 92.7121 49.1091 92.7233C49.1112 92.7344 49.1156 92.745 49.1221 92.7543C49.1285 92.7637 49.1368 92.7716 49.1465 92.7775C49.1647 92.7912 51.1073 94.1273 51.2623 96.1839C51.2632 96.195 51.2662 96.2058 51.2713 96.2157C51.2763 96.2256 51.2833 96.2344 51.2918 96.2416C51.3003 96.2488 51.3101 96.2543 51.3207 96.2577C51.3313 96.2611 51.3424 96.2623 51.3535 96.2614Z" fill="black"/>
<path opacity="0.2" d="M50.1175 96.3186C50.1286 96.3177 50.1394 96.3147 50.1493 96.3096C50.1592 96.3046 50.168 96.2976 50.1752 96.2891C50.1824 96.2806 50.1879 96.2708 50.1913 96.2602C50.1947 96.2496 50.1959 96.2385 50.195 96.2274C50.1504 95.7888 50.0051 95.3664 49.7706 94.9931C49.5361 94.6198 49.2187 94.3057 48.843 94.0751C48.8333 94.0697 48.8226 94.0662 48.8115 94.065C48.8005 94.0637 48.7893 94.0647 48.7786 94.0677C48.7679 94.0708 48.7579 94.076 48.7492 94.0829C48.7405 94.0898 48.7332 94.0984 48.7278 94.1081C48.7225 94.1179 48.719 94.1285 48.7178 94.1396C48.7165 94.1507 48.7175 94.1618 48.7205 94.1725C48.7236 94.1832 48.7287 94.1932 48.7357 94.2019C48.7426 94.2106 48.7512 94.2179 48.7609 94.2233C49.1093 94.4438 49.4038 94.7399 49.6224 95.0895C49.841 95.4392 49.9783 95.8335 50.024 96.2433C50.0274 96.2653 50.0389 96.2852 50.0562 96.2991C50.0735 96.313 50.0953 96.32 50.1175 96.3186Z" fill="black"/>
<path opacity="0.2" d="M48.8102 96.2617C48.8328 96.2611 48.8542 96.2517 48.87 96.2355C48.8857 96.2193 48.8945 96.1976 48.8945 96.175C48.8649 95.279 48.2561 95.0738 48.2311 95.0647C48.209 95.0582 48.1853 95.0605 48.1648 95.0711C48.1444 95.0817 48.1289 95.0999 48.1216 95.1217C48.1152 95.1434 48.1176 95.1669 48.1282 95.1869C48.1389 95.2069 48.157 95.222 48.1786 95.2288C48.2014 95.2288 48.6985 95.4112 48.7235 96.1796C48.7238 96.1907 48.7263 96.2016 48.7308 96.2117C48.7353 96.2218 48.7418 96.231 48.7498 96.2386C48.7579 96.2462 48.7674 96.2522 48.7777 96.2561C48.7881 96.2601 48.7991 96.262 48.8102 96.2617Z" fill="black"/>
</g>
<path d="M36.0236 89.499C34.0218 89.499 33.4632 91.1224 33.4632 91.9933C33.4632 92.8643 33.8553 94.4443 36.0236 94.4443C37.7268 94.4443 38.4336 93.0604 38.4336 92.0344C38.4404 90.6687 37.3278 89.499 36.0236 89.499Z" fill="#DD0B0E"/>
<path opacity="0.3" d="M36.0236 89.499C34.0218 89.499 33.4632 91.1224 33.4632 91.9933C33.4632 92.8643 33.8553 94.4443 36.0236 94.4443C37.7268 94.4443 38.4336 93.0604 38.4336 92.0344C38.4404 90.6687 37.3278 89.499 36.0236 89.499Z" fill="black"/>
<path opacity="0.1" d="M33.5374 92.616C33.713 93.4573 34.3195 94.44 36.0295 94.44C37.7395 94.44 38.4395 93.0583 38.4395 92.0301C38.4381 91.5144 38.282 91.011 37.9913 90.585C37.7007 90.159 37.2889 89.83 36.8093 89.6406C37.156 89.8553 37.4424 90.1546 37.6418 90.5103C37.8412 90.866 37.947 91.2666 37.9493 91.6744C37.9493 92.6251 37.2972 93.9042 35.7217 93.9042C34.4061 93.9065 33.7974 93.2749 33.5374 92.616Z" fill="black"/>
<g opacity="0.2">
<path opacity="0.2" d="M37.6387 91.4279C37.0003 91.7038 36.2 91.7722 35.7873 91.1201L35.7075 91.1543C35.2743 91.3481 34.6656 91.323 34.4763 90.81C34.4104 90.6481 34.3637 90.479 34.3372 90.3062C34.3193 90.4868 34.3301 90.6692 34.3692 90.8465C34.5105 91.494 35.2812 91.6012 35.801 91.3618L35.6619 91.3253C36.1179 91.9911 37.0732 91.8885 37.6387 91.4279Z" fill="black"/>
<path opacity="0.2" d="M35.6433 93.1426C36.0993 93.7856 37.0911 93.6966 37.5653 93.0902C37.6272 93.01 37.6843 92.9263 37.7363 92.8394C37.6474 92.8918 37.5699 92.9511 37.4901 93.0081C37.232 93.2146 36.9173 93.338 36.5876 93.362C36.2579 93.386 35.9286 93.3095 35.6433 93.1426Z" fill="black"/>
<path opacity="0.2" d="M35.1951 90.4316C35.5758 91.0199 36.4764 90.8078 36.7227 90.2036C36.253 90.5228 35.7605 90.7121 35.1951 90.4316Z" fill="black"/>
</g>
<path d="M44.7981 91.2436C42.9513 92.012 43.0585 93.7265 43.3913 94.5291C43.7242 95.3316 44.6955 96.6404 46.6973 95.8082C48.2705 95.1538 48.3914 93.6057 47.9969 92.6572C47.4725 91.3964 45.9974 90.7443 44.7981 91.2436Z" fill="#DD0B0E"/>
<path opacity="0.3" d="M44.7981 91.2436C42.9513 92.012 43.0585 93.7265 43.3913 94.5291C43.7242 95.3316 44.6955 96.6404 46.6973 95.8082C48.2705 95.1538 48.3914 93.6057 47.9969 92.6572C47.4725 91.3964 45.9974 90.7443 44.7981 91.2436Z" fill="black"/>
<path opacity="0.1" d="M43.6927 95.0761C44.1783 95.7852 45.1177 96.4623 46.6955 95.8057C48.2732 95.149 48.3918 93.6032 47.9951 92.6547C47.7959 92.1788 47.4584 91.7737 47.0262 91.492C46.5941 91.2102 46.0872 91.0649 45.5714 91.0747C45.9744 91.1394 46.3544 91.3054 46.6758 91.557C46.9972 91.8086 47.2495 92.1377 47.4091 92.5134C47.7739 93.3912 47.6622 94.823 46.2053 95.4272C44.99 95.9356 44.1875 95.5868 43.6927 95.0761Z" fill="black"/>
<g opacity="0.2">
<path opacity="0.2" d="M47.0579 92.3403C46.6567 92.8191 46 93.1566 45.4619 92.7325L45.3798 92.68C45.0173 93.111 44.5248 93.2706 44.1122 92.7986C44 92.6684 43.8972 92.5305 43.8044 92.3859C43.8612 92.5554 43.9377 92.7177 44.0324 92.8693C44.3994 93.4552 45.0698 93.3846 45.4961 92.8989L45.3434 92.9172C45.9909 93.396 46.7661 93.0084 47.0762 92.3403H47.0579Z" fill="black"/>
<path opacity="0.2" d="M45.7086 93.991C46.3766 94.406 47.2658 93.9409 47.4619 93.2044C47.4879 93.1061 47.5084 93.0064 47.5234 92.9058C47.4619 92.9901 47.4117 93.0745 47.3616 93.1566C47.2022 93.446 46.9591 93.6806 46.6642 93.8295C46.3692 93.9784 46.0361 94.0347 45.7086 93.991Z" fill="black"/>
<path opacity="0.2" d="M44.1729 94.9666C44.5674 95.5435 45.4611 95.3109 45.6914 94.6885C45.2354 95.0214 44.7429 95.222 44.1729 94.9666Z" fill="black"/>
</g>
<path d="M27.5892 91.5875C25.5965 91.7722 25.1906 93.4411 25.2704 94.3075C25.3502 95.1739 25.8883 96.7106 28.0475 96.51C29.7438 96.3527 30.3275 94.914 30.2226 93.888C30.0972 92.5291 28.8774 91.4667 27.5892 91.5875Z" fill="#DD0B0E"/>
<path opacity="0.3" d="M27.5892 91.5875C25.5965 91.7722 25.1906 93.4411 25.2704 94.3075C25.3502 95.1739 25.8883 96.7106 28.0475 96.51C29.7438 96.3527 30.3275 94.914 30.2226 93.888C30.0972 92.5291 28.8774 91.4667 27.5892 91.5875Z" fill="black"/>
<path opacity="0.1" d="M25.388 94.9209C25.6434 95.744 26.3365 96.6696 28.0397 96.5169C29.7428 96.3641 30.3197 94.9209 30.2171 93.8949C30.1675 93.3812 29.965 92.8941 29.6358 92.4966C29.3066 92.0991 28.8658 91.8095 28.3703 91.665C28.7362 91.8461 29.05 92.1174 29.2822 92.4532C29.5143 92.7891 29.6572 93.1785 29.6972 93.5848C29.7862 94.531 29.2526 95.8648 27.684 96.0107C26.3753 96.1247 25.7095 95.5547 25.388 94.9209Z" fill="black"/>
<g opacity="0.2">
<path opacity="0.2" d="M29.0137 95.2308C28.4026 95.566 27.6137 95.7073 27.1418 95.0963L27.0665 95.1373C26.6516 95.3653 26.0428 95.4018 25.808 94.9093C25.7256 94.7551 25.6628 94.5912 25.621 94.4214C25.6205 94.6033 25.6489 94.7842 25.7054 94.9572C25.906 95.5888 26.6721 95.6252 27.176 95.3379L27.0346 95.3151C27.5522 95.9353 28.4938 95.7438 29.0137 95.2331V95.2308Z" fill="black"/>
<path opacity="0.2" d="M27.7091 94.2482C28.2312 94.8432 29.2002 94.6631 29.6174 94.0202C29.6699 93.9313 29.7223 93.8446 29.7656 93.7534C29.6813 93.815 29.6083 93.8811 29.5376 93.9449C29.2995 94.1732 28.9981 94.3245 28.6727 94.379C28.3474 94.4335 28.0132 94.3887 27.7136 94.2504L27.7091 94.2482Z" fill="black"/>
<path opacity="0.2" d="M26.5635 92.9419C26.7687 93.6099 27.6921 93.651 28.0957 93.1266C27.5553 93.3067 27.0309 93.3546 26.5635 92.9419Z" fill="black"/>
</g>
</svg>
